<svg xmlns="http://www.w3.org/2000/svg" viewBox="-55.360000000000014 -31.36 286.72 286.72" fill="none"><path d="M160 208l-49.46001 0c8.30854-7.41873 16.14391-15.35095 23.46001-23.75 27.45-31.57001 42-64.85 42-96.25 0-23.33905-9.27139-45.72219-25.7746-62.22539-16.5032-16.5032-38.88635-25.7746-62.2254-25.77461-23.33905 0-45.72219 9.2714-62.22539 25.7746-16.5032 16.5032-25.7746 38.88634-25.77461 62.2254 0 31.4 14.51 64.67999 42 96.25 7.3161 8.39905 15.15146 16.33127 23.46 23.75l-49.46 0c-2.12173 0-4.15656 0.84285-5.65685 2.34314-1.50029 1.50029-2.34315 3.53513-2.34315 5.65686 0 2.12173 0.84286 4.15657 2.34315 5.65686 1.50029 1.50029 3.53512 2.34314 5.65685 2.34314l144 0c2.12173 0 4.15657-0.84285 5.65686-2.34314 1.50029-1.50029 2.34314-3.53513 2.34314-5.65686 0-2.12173-0.84285-4.15657-2.34314-5.65686-1.50029-1.50029-3.53513-2.34314-5.65686-2.34314z m-144-120c0-19.09559 7.58569-37.40907 21.08831-50.91169 13.50262-13.50262 31.8161-21.08831 50.91169-21.08831 19.09559 0 37.40907 7.58569 50.91168 21.08831 13.50263 13.50262 21.08832 31.8161 21.08832 50.91169 0 57.23-55.47 105-72 118-16.53-13-72-60.77-72-118z m112 0c0-7.91125-2.34595-15.64484-6.74121-22.22281-4.39526-6.57796-10.6424-11.70487-17.95145-14.73238-7.30904-3.0275-15.35171-3.81964-23.11095-2.27623-7.75924 1.54341-14.88656 5.35304-20.48066 10.94715-5.5941 5.5941-9.40374 12.72142-10.94714 20.48066-1.54341 7.75924-0.75127 15.8019 2.27622 23.11094 3.0275 7.30905 8.15441 13.5562 14.73238 17.95146 6.57796 4.39526 14.31155 6.74121 22.22281 6.74121 10.60866 0 20.78281-4.21427 28.28427-11.71573 7.50146-7.50146 11.71573-17.67561 11.71573-28.28427z m-64 0c0-4.74675 1.40758-9.38691 4.04473-13.33369 2.63715-3.94678 6.38544-7.02292 10.77087-8.83942 4.38543-1.8165 9.21103-2.29178 13.86657-1.36574 4.65555 0.92605 8.93193 3.21182 12.2884 6.56828 3.35646 3.35646 5.64223 7.63286 6.56828 12.2884 0.92605 4.65554 0.45077 9.48114-1.36574 13.86657-1.8165 4.38543-4.89265 8.13372-8.83943 10.77087-3.94678 2.63715-8.58693 4.04473-13.33368 4.04473-6.3652 0-12.4697-2.52856-16.97057-7.02943-4.50087-4.50087-7.02943-10.60537-7.02943-16.97057z" fill="#ffffff"/></svg>
