<svg xmlns="http://www.w3.org/2000/svg" viewBox="0 0 186.00550842285156 137.95834350585938" fill="none"><path d="M92.80288 1.31538c-0.97434 0.78637-1.97735 1.52984-2.90871 2.35909-0.94569 0.82926-1.87705 1.70141-2.77975 2.58786-2.00601 1.93017-3.98337 3.88893-5.93206 5.862-3.84007 3.90323-7.68014 7.79217-11.50589 11.72399-7.92373 8.1639-15.60388 16.58516-22.92582 25.29238-3.62514 4.33216-7.13566 8.7644-10.63184 13.19664-3.48186 4.43224-6.84909 8.93597-10.11602 13.52548-3.22394 4.53233-6.24728 9.20763-9.22764 13.91152-2.92304 4.60381-5.74578 9.29341-8.35359 14.0831-2.9517 5.39017-5.65981 10.92333-8.26762 16.49937-0.51583 1.08662 0.34389 2.44489 1.4042 2.80232 0.55882 0.18587 1.17495 0.14298 1.69078-0.11438 0.57315-0.28595 0.84539-0.71488 1.11764-1.28678 0.42986-0.90075 0.87405-1.8015 1.31823-2.70224 2.52184-4.98984 5.37324-9.80813 8.31061-14.56921 3.09499-5.03274 6.34758-9.97968 9.80078-14.78366 3.52484-4.90406 7.23596-9.69374 10.99006-14.42623 3.81142-4.80398 7.75179-9.50787 11.79247-14.11169 4.1553-4.63241 8.42524-9.13614 12.72383-13.61127 4.34157-4.51803 8.76912-8.97887 13.28264-13.33962 4.42754-4.27497 8.91241-8.47845 13.54056-12.52466 2.26392-1.98736 4.54218-3.93183 6.83475-5.8763 1.11764-0.97223 2.2496-1.93017 3.35291-2.9024 1.26093-1.10091 2.43587-2.28761 3.62515-3.4743 1.06031-1.04372 1.76242-2.24472 1.84839-3.76026 0.07164-1.38686-0.40121-2.78802-1.31824-3.83175-0.94569-1.08661-2.32124-1.7586-3.76843-1.84438-0.1003 0-0.2006 0-0.28657 0-1.33257 0-2.52184 0.50041-3.5535 1.32967m-4.1409 27.07965c-0.78807 0.40033-1.44719 0.97223-1.94869 1.70141-3.08066 3.81745-6.07534 7.67779-9.25631 11.40945-3.22395 3.78885-6.43355 7.6063-9.62883 11.43804-6.46222 7.73497-12.82413 15.57004-19.04276 23.50518-6.21863 7.93514-12.15068 16.11333-17.81049 24.44882-5.58817 8.22109-10.68916 16.74243-15.61822 25.36386-0.1003 0.17157-0.2006 0.34314-0.28657 0.51471-0.42986 0.74347-0.32956 1.6728 0.41553 2.17323 0.67345 0.45752 1.7481 0.31453 2.17796-0.41464 2.86573-4.96125 5.98937-9.76522 9.25629-14.46911 3.42454-4.93266 6.94939-9.79383 10.58886-14.56922 3.68246-4.83257 7.50821-9.52217 11.37694-14.21176 3.81142-4.61811 7.69448-9.16473 11.66351-13.65417-0.11463 0.12868-0.22926 0.24307-0.32955 0.37174 5.47354-6.16225 11.07603-12.21011 16.79315-18.1436 2.76543-2.85951 5.48787-5.76191 8.28195-8.57853 2.90871-2.931 5.94638-5.70472 8.92674-8.53564 1.00301-0.94364 1.64779-2.13034 1.73376-3.5315 0.07164-1.31538-0.37253-2.61645-1.23225-3.60298-0.88837-1.01513-2.17796-1.65851-3.53918-1.73-0.08597 0-0.18627 0-0.27224 0-0.78807 0-1.54749 0.17157-2.26393 0.52901m23.58493 4.23207c-7.2073 5.81911-13.74115 12.46746-20.23202 19.07294-7.02103 7.12018-13.81281 14.45483-20.23204 22.11832-6.31893 7.53481-12.37994 15.28409-18.01109 23.34791-2.7511 3.94612-5.28726 8.02093-7.76612 12.13863-2.40721 4.00331-4.57084 8.1353-6.90641 12.18151-0.4012 0.70058-0.31523 1.57274 0.40121 2.05885 0.63046 0.42893 1.64779 0.30025 2.06332-0.40033 1.90571-3.20265 4.06934-6.20514 6.27594-9.19333 2.37855-3.23124 4.81442-6.40531 7.29328-9.56507 5.01502-6.4196 10.18766-12.69623 15.58956-18.80128 7.36491-8.24969 15.13104-16.15624 23.15506-23.76254 4.06934-3.86034 8.23897-7.6063 12.52323-11.20928 4.14098-3.4886 8.36793-6.87712 12.48024-10.38003 2.09198-1.78719 2.27826-5.04704 0.48717-7.10588-0.88837-1.01512-2.17795-1.64422-3.52484-1.71571-0.08597 0-0.18627 0-0.27225 0-1.23226 0-2.34989 0.45752-3.32424 1.24389m7.59418 22.10402c-4.68546 5.03274-9.49988 9.9225-14.22833 14.91234-4.87174 5.16141-9.74348 10.30853-14.44327 15.62723-3.10931 3.5029-6.17564 7.03439-9.12734 10.65168-3.02334 3.71736-5.93205 7.53481-8.84077 11.33796-2.89439 3.78885-5.64548 7.69209-8.3106 11.63821-2.72244 4.06051-5.28727 8.2497-7.5512 12.58185-0.15761 0.34316-0.32956 0.67198-0.48717 1.00083-0.24359 0.70057-0.28657 1.41545-0.12896 2.14463 0.21493 1.04372 0.84539 1.98737 1.73377 2.57357 0.91703 0.61479 2.06332 0.84355 3.1523 0.61479 0.96002-0.20017 2.1063-0.82926 2.57915-1.73001 1.81974-3.37422 3.59649-6.76273 5.47354-10.10836 1.87705-3.35993 3.78276-6.69126 5.77444-9.994 1.99168-3.28843 4.06933-6.54828 6.21863-9.73663 2.16363-3.18836 4.44187-6.30522 6.67713-9.45069 4.48486-6.27663 9.199-12.38168 13.97043-18.42954 2.37856-3.01679 4.8574-5.96207 7.33626-8.87878 2.47886-2.9024 4.92906-5.8334 7.4509-8.69292 0.25791-0.28595 0.51583-0.5862 0.77374-0.88645-0.01433 0.0143-0.04298 0.04289-0.05731 0.07149 0.05732-0.07149 0.11462-0.12868 0.17193-0.20016 0 0 0 0 0-0.0143 1.06033-1.1724 2.12065-2.34479 3.19529-3.5172 0.37255-0.40033 0.48717-0.98653 0.1003-1.42976-0.18627-0.21446-0.5015-0.35744-0.81673-0.35743-0.22925 0-0.45852 0.07149-0.61613 0.25735m-1.86273 5.07563c0 0-0.07163 0.08579-0.11462 0.12868 0.04299-0.04289 0.08597-0.08579 0.11462-0.14297m31.15046-9.9511c-5.28726 5.41877-10.37393 11.03771-15.48925 16.62806-5.34458 5.8477-10.6032 11.80978-15.70419 17.87194-9.90108 11.76689-19.17171 24.04849-27.98382 36.64463-0.9027 1.28679-0.51583 3.14546 0.77374 4.00332 1.33257 0.90075 3.10931 0.51471 4.02635-0.77208 8.03836-11.36655 16.7645-22.26128 25.99214-32.6699-0.2006 0.21446-0.38687 0.44321-0.58747 0.65768 5.54518-6.23373 11.23364-12.31019 17.18002-18.15789 2.95169-2.9167 5.96073-5.76192 9.07004-8.50705 3.09499-2.74513 6.27594-5.36158 9.44257-7.99233 2.14929-1.78719 2.29258-5.14712 0.50151-7.22026-0.9027-1.02942-2.20662-1.65852-3.58217-1.74431-0.08597 0-0.18628 0-0.28658 0-1.17494 0-2.55049 0.41463-3.36723 1.25819m3.85442 29.00973c-3.92604 3.84605-7.80913 7.74928-11.4486 11.86698-3.59648 4.0605-7.02102 8.26398-10.40258 12.51036-3.36724 4.24637-6.46221 8.69291-9.51421 13.16804-1.53317 2.24472-3.052 4.51802-4.55651 6.79134-1.59048 2.40199-3.1953 4.80398-4.5995 7.32036-0.4012 0.72917-0.63046 1.45835-0.45852 2.30191 0.15762 0.75776 0.61614 1.44404 1.26093 1.88726 1.33257 0.88645 3.29559 0.5719 4.18396-0.81495 1.26092-1.98737 2.40721-4.0605 3.58216-6.11936 1.23226-2.14463 2.47885-4.28927 3.73977-6.40531 2.4502-4.1034 5.02935-8.13531 7.68015-12.11003 1.27526-1.93017 2.53617-3.87463 3.82575-5.7905 1.37555-2.01595 2.80841-4.00332 4.28425-5.93349 1.40421-1.84438 2.86574-3.66017 4.32726-5.44736 1.53316-1.87298 3.06631-3.73167 4.6568-5.56176-0.05731 0.07149-0.11463 0.12868-0.17194 0.18588 0.07164-0.07149 0.12895-0.15728 0.20059-0.22877 0.01433-0.0143 0.02868-0.04289 0.05733-0.05719 0 0.0143-0.02867 0.02859-0.043 0.04289 1.67645-1.87298 3.41022-3.70307 5.2013-5.49026 0.54448-0.5433 0.65913-1.37257 0.12896-1.98736-0.27224-0.31454-0.68777-0.48611-1.08897-0.48611-0.32956 0-0.64479 0.11438-0.88838 0.34313m-3.36724 7.6206c0 0-0.02865 0.0286-0.02865 0.0429 0.01433-0.0143 0.02865-0.0286 0.04298-0.05719 0 0 0 0 0 0.01429m33.85857-19.47326c-3.88306 3.37422-7.63716 6.87713-11.20499 10.58019-3.65381 3.80315-7.10699 7.80647-10.50288 11.85267-3.39589 4.03191-6.59119 8.22109-9.71483 12.46747-3.13797 4.27497-6.04666 8.76439-8.35358 13.53977-0.18628 0.54332-0.21492 1.11522-0.10029 1.68712 0.17193 0.81497 0.6591 1.55844 1.3612 2.01596 1.40421 0.94365 3.58216 0.64339 4.48487-0.87215 1.93437-3.21695 3.6538-6.54828 5.50219-9.83672 1.87705-3.34562 3.76844-6.66266 5.84609-9.89391 2.07765-3.23125 4.24127-6.4053 6.54819-9.47928 2.29258-3.05968 4.75711-5.99067 7.29327-8.85018-0.1003 0.11438-0.20061 0.22876-0.3009 0.34314 3.52484-3.94613 7.19299-7.76357 11.16201-11.26647 0.61614-0.5433 0.68778-1.51555 0.1433-2.14464-0.3009-0.34314-0.73079-0.51471-1.16065-0.51471-0.35821 0-0.70208 0.11438-0.98866 0.37174" fill="#f3c395"/></svg>
