<svg xmlns="http://www.w3.org/2000/svg" viewBox="0 0 32 32" fill="none">
  <rect width="32" height="32" rx="8" fill="#055346" />
  <path
    fill="#f9efe6"
    d="M9.5 8.5c.4 0 .7.3.7.7v5.3c0 1.1.9 2 2 2s2-.9 2-2V9.2c0-.4.3-.7.7-.7s.7.3.7.7v5.3c0 1.9-1.5 3.4-3.4 3.5V23c0 .4-.3.7-.7.7s-.7-.3-.7-.7v-4.3c-1.9-.1-3.4-1.6-3.4-3.5V9.2c0-.4.3-.7.7-.7zm10.2 0c1.8 0 3.3 1.5 3.3 3.3v2.2c0 1.3-.8 2.5-1.9 3V23c0 .4-.3.7-.7.7s-.7-.3-.7-.7v-6.3c-1.1-.5-1.9-1.7-1.9-3V11.8c0-1.8 1.5-3.3 3.3-3.3zm0 1.4c-1 0-1.9.8-1.9 1.9v2.2c0 .7.4 1.4 1.1 1.7.2.1.5.1.7 0 .7-.3 1.1-1 1.1-1.7v-2.2c0-1.1-.8-1.9-1.9-1.9z" />
</svg>
