<svg xmlns="http://www.w3.org/2000/svg" viewBox="-31.41651420000001 -29.402034200000035 268.81859840000004 268.81859840000004" fill="none"><path d="M104.00005 0c-20.56926 0-40.67659 6.09949-57.77931 17.52716-17.10271 11.42767-30.43265 27.67024-38.30416 46.67376-7.87151 19.00352-9.93106 39.91445-5.9182 60.08848 4.01286 20.17402 13.9179 38.70505 28.46256 53.24971 14.54466 14.54466 33.07569 24.44969 53.24972 28.46255 20.17403 4.01287 41.08494 1.95333 60.08846-5.91819 19.00351-7.87153 35.24609-21.20147 46.67377-38.30417 11.42767-17.10271 17.52716-37.21004 17.52716-57.7793-0.02912-27.57358-10.99559-54.00947-30.49306-73.50695-19.49747-19.49747-45.93337-30.46393-73.50694-30.49305z m0 192c-17.40476 0-34.41866-5.1611-48.89019-14.83067-14.47153-9.66957-25.7507-23.41329-32.41121-39.49318-6.66051-16.0799-8.40321-33.77377-5.00771-50.8441 3.3955-17.07033 11.77669-32.75043 24.08371-45.05745 12.30702-12.30702 27.98712-20.68821 45.05745-24.0837 17.07033-3.3955 34.7642-1.65281 50.84409 5.0077 16.0799 6.66051 29.82361 17.93969 39.49318 32.41122 9.66957 14.47153 14.83068 31.48543 14.83068 48.89018-0.02648 23.33092-9.30637 45.6987-25.80384 62.19617-16.49746 16.49746-38.86524 25.77736-62.19616 25.80383z m40-68c0 7.42606-2.94999 14.54797-8.20101 19.799-5.25102 5.25102-12.37293 8.201-19.79899 8.201l-4 0 0 8c0 2.12173-0.84285 4.15657-2.34314 5.65686-1.50029 1.50029-3.53513 2.34314-5.65686 2.34314-2.12174 0-4.15657-0.84285-5.65686-2.34314-1.50029-1.50029-2.34315-3.53513-2.34314-5.65686l0-8-16 0c-2.12174 0-4.15656-0.84285-5.65686-2.34314-1.50029-1.50029-2.34315-3.53513-2.34314-5.65686 0-2.12173 0.84286-4.15657 2.34314-5.65686 1.50029-1.50029 3.53512-2.34314 5.65686-2.34314l36 0c3.18259 0 6.23484-1.26428 8.48527-3.51472 2.25044-2.25045 3.51473-5.30269 3.51473-8.48528 0-3.18259-1.26429-6.23484-3.51473-8.48528-2.25043-2.25043-5.30268-3.51472-8.48527-3.51472l-24 0c-7.42606 0-14.54797-2.95-19.79899-8.20101-5.25101-5.25102-8.20101-12.37293-8.20101-19.79899 0-7.42606 2.95-14.54797 8.20101-19.79899 5.25101-5.25102 12.37292-8.20101 19.79899-8.20101l4 0 0-8c0-2.12173 0.84286-4.15656 2.34314-5.65685 1.50029-1.50029 3.53512-2.34315 5.65686-2.34315 2.12173 0 4.15657 0.84286 5.65686 2.34315 1.50029 1.50029 2.34314 3.53512 2.34314 5.65685l0 8 16 0c2.12173 0 4.15657 0.84286 5.65686 2.34315 1.50029 1.50029 2.34314 3.53512 2.34314 5.65685 0 2.12174-0.84285 4.15656-2.34314 5.65685-1.50029 1.50029-3.53513 2.34315-5.65686 2.34315l-36 0c-3.18259 0-6.23485 1.26428-8.48529 3.51472-2.25043 2.25043-3.51472 5.30269-3.51471 8.48528 0 3.18259 1.26428 6.23485 3.51471 8.48528 2.25043 2.25044 5.30269 3.51472 8.48529 3.51472l24 0c7.42606 0 14.54797 2.94998 19.79899 8.201 5.25102 5.25103 8.20101 12.37294 8.20101 19.799z" fill="#ffffff"/></svg>
