<svg xmlns="http://www.w3.org/2000/svg" viewBox="0 0 256 256" fill="none">
  <path
    fill="#ffffff"
    d="M128 24a104 104 0 1 0 104 104A104.12 104.12 0 0 0 128 24zm12 152v8a12 12 0 0 1-24 0v-8a44.05 44.05 0 0 1-32-41.7 12 12 0 0 1 24-1.3 20 20 0 1 0 20-20 12 12 0 0 1 0-24 20 20 0 1 0-16.5 32.7 12 12 0 0 1-15.4 9.3A44.06 44.06 0 0 1 116 88v-8a12 12 0 0 1 24 0v8a44.05 44.05 0 0 1 32 41.7 12 12 0 0 1-24 1.3 20 20 0 1 0-20 20 12 12 0 0 1 0 24 20 20 0 1 0 16.5-32.7 12 12 0 0 1 15.4-9.3A44.06 44.06 0 0 1 140 176z" />
</svg>
