<svg xmlns="http://www.w3.org/2000/svg" viewBox="0 0 38 38" fill="none"><g transform="translate(-0.02018750086426735,5.314062118530273)"><path d="M941.28003 46.496c-27.74402-19.968-105.05603-46.496-429.00806-46.496-347.15201 0-398.65597 30.46401-415.18497 40.43201-87.968 52.847-96.32 286.815-97.087 334.255 1.056 62.65799 11.18401 271.12097 97.024 322.69 16.497 9.935 67.71196 40.22297 415.24797 40.22297 324.16004 0 401.37604-26.39997 429.00806-46.28797 74.97597-53.935 83.59987-239.68002 83.80787-317.43902-0.192-62.52802-6.7519-271.87198-83.80689-327.37598l-0.00098-0.00101z m-37.37604 592.87998c-11.15198 8.03198-75.18597 34.22302-391.63397 34.22302-305.93601 0-370.12801-23.74402-382.25601-31.05603-30.88-18.52802-63.47201-116.88001-66.03101-268.03198 2.528-150.816 35.568-260.91199 66.097-279.21599 12.16001-7.344 76.59102-31.28 382.19002-31.28 316.19202 0 380.40002 26.369 391.633 34.433 27.40899 19.744 56.75201 123.68002 57.18402 275.63202-0.43201 154.336-29.96704 245.71197-57.18305 265.29596z m-182.94501-295.74598l-287.93399-176.68901c-4.85394-2.92698-10.39816-4.51228-16.06573-4.59381-5.66757-0.08152-11.25513 1.34366-16.19125 4.12983-4.94059 2.78649-9.05216 6.83554-11.91407 11.73281-2.86191 4.89728-4.37137 10.467-4.37393 16.13919l0 353.43999c0.00424 8.48566 3.37702 16.6225 9.37726 22.62274 6.00024 6.00025 14.13711 9.37305 22.62274 9.37726 5.8241 0.00086 11.53815-1.58679 16.52701-4.59204l287.93701-176.75195c9.59998-5.80701 15.47199-16.19004 15.47199-27.40705 0-11.21701-5.85602-21.63195-15.456-27.40796l-0.00104 0z m-272.46197 147.47101l0-240.097 194 120.032-194 120.065z" fill="#ffffff"/></g></svg>
