<svg xmlns="http://www.w3.org/2000/svg" viewBox="0 0 53.8975715637207 67.30426788330078" fill="none"><path d="M51.53743 0.36c-0.55 0.28-1.01 0.68-1.36001 1.19-2.15 2.67-4.24 5.37-6.45999 7.98-2.25 2.65-4.49 5.32-6.72001 8-4.51 5.41-8.95 10.89-13.29 16.44-4.34 5.55-8.48 11.27-12.43 17.1-3.9 5.75-7.46 11.71-10.89999 17.74-0.07 0.12-0.14 0.24-0.20001 0.36-0.3 0.52-0.23 1.17001 0.29 1.52 0.47 0.32 1.22 0.21999 1.52-0.29001 2-3.47 4.18-6.82999 6.46-10.11999 2.39-3.45 4.85-6.85 7.39-10.19 2.57-3.38 5.24-6.66 7.94-9.94 2.66-3.23 5.37-6.41 8.14001-9.55-0.08 0.09-0.16 0.17-0.23 0.26 3.82-4.31 7.72999-8.54 11.72-12.69 1.93-2 3.83-4.03 5.78-6 2.03-2.05 4.15-3.99 6.22999-5.97 0.7-0.66 1.15-1.49 1.21-2.47 0.05-0.92-0.25999-1.83-0.85999-2.52-0.62-0.71-1.52-1.16-2.47001-1.21-0.06 0-0.13 0-0.18999 0-0.55 0-1.08 0.12-1.58001 0.37" fill="#f3c395"/></svg>
