<svg xmlns="http://www.w3.org/2000/svg" viewBox="0 0 256 256" fill="none"><path d="M176 16l-24 0 0-8c0-2.12173-0.84285-4.15656-2.34314-5.65685-1.50029-1.50029-3.53513-2.34315-5.65686-2.34315-2.12173 0-4.15657 0.84285-5.65686 2.34315-1.50029 1.50029-2.34314 3.53512-2.34314 5.65685l0 8-80 0 0-8c0-2.12173-0.84286-4.15656-2.34315-5.65685-1.50029-1.50029-3.53512-2.34315-5.65685-2.34315-2.12173 0-4.15656 0.84285-5.65685 2.34315-1.50029 1.50029-2.34315 3.53512-2.34315 5.65685l0 8-24 0c-4.24346 0-8.31313 1.68571-11.31371 4.68629-3.00058 3.00058-4.68629 7.07024-4.68629 11.31371l0 160c0 4.24347 1.68571 8.31313 4.68629 11.31371 3.00058 3.00058 7.07025 4.68629 11.31371 4.68629l160 0c4.24347 0 8.31313-1.68571 11.31371-4.68629 3.00058-3.00058 4.68629-7.07024 4.68629-11.31371l0-160c0-4.24346-1.68571-8.31313-4.68629-11.31371-3.00058-3.00058-7.07024-4.68629-11.31371-4.68629z m-136 16l0 8c0 2.12173 0.84286 4.15656 2.34315 5.65685 1.50029 1.50029 3.53512 2.34315 5.65685 2.34315 2.12173 0 4.15656-0.84286 5.65685-2.34315 1.50029-1.50029 2.34315-3.53512 2.34315-5.65685l0-8 80 0 0 8c0 2.12173 0.84285 4.15656 2.34314 5.65685 1.50029 1.50029 3.53513 2.34315 5.65686 2.34315 2.12173 0 4.15657-0.84286 5.65686-2.34315 1.50029-1.50029 2.34314-3.53512 2.34314-5.65685l0-8 24 0 0 32-160 0 0-32 24 0z m136 160l-160 0 0-112 160 0 0 112z m-38.34-85.66c0.74381 0.74298 1.3339 1.62529 1.73648 2.59648 0.40259 0.97118 0.60981 2.0122 0.60981 3.06352 0 1.05132-0.20722 2.09234-0.60981 3.06352-0.40258 0.97119-0.99267 1.8535-1.73648 2.59648l-48 48c-0.74298 0.74381-1.6253 1.3339-2.59648 1.73648-0.97118 0.40259-2.0122 0.60981-3.06352 0.60981-1.05132 0-2.09234-0.20722-3.06352-0.60981-0.97118-0.40258-1.8535-0.99267-2.59648-1.73648l-24-24c-1.50113-1.50113-2.34444-3.53709-2.34445-5.66 0-2.12291 0.84332-4.15887 2.34445-5.66 1.50113-1.50113 3.53709-2.34446 5.66-2.34446 2.12291 0 4.15887 0.84333 5.66 2.34446l18.34 18.35 42.34-42.35c0.74298-0.74382 1.62529-1.33388 2.59648-1.73648 0.97119-0.40259 2.01219-0.60981 3.06352-0.60981 1.05133 0 2.09233 0.20722 3.06352 0.60981 0.97119 0.4026 1.8535 0.99266 2.59648 1.73648z" fill="#ffffff"/></svg>
