<svg xmlns="http://www.w3.org/2000/svg" viewBox="0 0 34.537715911865234 34.53771209716797" fill="none"><path d="M207.85696 112.68718c-1.69966 19.75973-9.00743 38.62303-21.06356 54.37061-12.05614 15.74757-28.35907 27.72428-46.99076 34.52108-18.63168 6.7968-38.81701 8.13092-58.18117 3.84542-19.36416-4.28551-37.10156-14.01238-51.12541-28.03621-14.02384-14.02384-23.7507-31.76125-28.03621-51.12542-4.28551-19.36415-2.95138-39.54948 3.84542-58.18116 6.7968-18.63168 18.77352-34.93462 34.52109-46.99075 15.74757-12.05613 34.61086-19.36391 54.3706-21.06357 1.05058-0.08667 2.10793 0.03443 3.11171 0.35639 1.00378 0.32196 1.9343 0.83848 2.73846 1.52006 0.80415 0.68158 1.46619 1.51488 1.9483 2.45232 0.48211 0.93744 0.77486 1.96065 0.86153 3.01123 0.08667 1.05057-0.03443 2.10793-0.35639 3.11171-0.32196 1.00377-0.83848 1.9343-1.52006 2.73845-0.68158 0.80416-1.51488 1.46619-2.45232 1.94831-0.93744 0.48211-1.96065 0.77486-3.01122 0.86153-16.72414 1.43694-32.68996 7.62067-46.01891 17.82363-13.32896 10.20296-23.4665 24.00064-29.21985 39.76962-5.75334 15.76897-6.88312 32.85316-3.2564 49.24244 3.62672 16.38928 11.85905 31.40176 23.72837 43.27109 11.86932 11.86932 26.88181 20.10164 43.27108 23.72836 16.38928 3.62672 33.47347 2.49695 49.24244-3.25639 15.76897-5.75335 29.56667-15.89087 39.76963-29.21984 10.20295-13.32896 16.3867-29.29478 17.82363-46.01892 0.17505-2.12173 1.18576-4.08703 2.80983-5.46354 1.62407-1.37652 3.72844-2.0515 5.85018-1.87645 2.12173 0.17504 4.08703 1.18576 5.46354 2.80983 1.37652 1.62406 2.0515 3.72843 1.87645 5.85017z m-112-64.66l0 56c0 2.12173 0.84286 4.15657 2.34315 5.65686 1.50029 1.50029 3.53512 2.34314 5.65685 2.34314l56 0c2.12174 0 4.15657-0.84285 5.65686-2.34314 1.50029-1.50029 2.34314-3.53513 2.34314-5.65686 0-2.12174-0.84285-4.15657-2.34314-5.65686-1.50029-1.50029-3.53512-2.34315-5.65686-2.34314l-48 0 0-48c0-2.12173-0.84285-4.15656-2.34314-5.65685-1.50029-1.50029-3.53512-2.34315-5.65686-2.34315-2.12173 0-4.15656 0.84286-5.65685 2.34315-1.50029 1.50029-2.34315 3.53512-2.34315 5.65685z m40-24c2.37339 0 4.69346-0.70379 6.66684-2.02237 1.97339-1.31858 3.51146-3.19272 4.41971-5.38543 0.90825-2.19271 1.14591-4.60551 0.68288-6.93328-0.46303-2.32777-1.60593-4.46597-3.28415-6.1442-1.67822-1.67823-3.81642-2.82112-6.1442-3.28414-2.32777-0.46302-4.74055-0.22538-6.93327 0.68287-2.19272 0.90825-4.06686 2.44632-5.38544 4.41971-1.31858 1.97339-2.02237 4.29347-2.02237 6.66684 0 3.1826 1.26429 6.23485 3.51473 8.48528 2.25044 2.25044 5.30267 3.51472 8.48527 3.51472z m36 24c2.37339 0 4.69346-0.70379 6.66684-2.02236 1.97339-1.31858 3.51146-3.19272 4.41971-5.38544 0.90825-2.19271 1.14591-4.60551 0.68288-6.93328-0.46303-2.32777-1.60593-4.46597-3.28415-6.1442-1.67822-1.67823-3.81642-2.82112-6.1442-3.28415-2.32777-0.46302-4.74055-0.22538-6.93327 0.68287-2.19272 0.90825-4.06686 2.44632-5.38544 4.41972-1.31857 1.97339-2.02237 4.29347-2.02237 6.66684 0 3.1826 1.26429 6.23485 3.51473 8.48528 2.25044 2.25043 5.30267 3.51472 8.48527 3.51472z m24 36c2.37339 0 4.69346-0.70378 6.66684-2.02237 1.97339-1.31858 3.51146-3.19273 4.41971-5.38543 0.90825-2.19271 1.14591-4.60551 0.68288-6.93329-0.46303-2.32777-1.60593-4.46597-3.28415-6.14419-1.67822-1.67823-3.81642-2.82112-6.1442-3.28414-2.32777-0.46302-4.74055-0.22538-6.93327 0.68286-2.19272 0.90825-4.06686 2.44632-5.38544 4.41972-1.31857 1.97339-2.02237 4.29346-2.02237 6.66684 0 3.18259 1.26429 6.23485 3.51473 8.48528 2.25044 2.25043 5.30267 3.51472 8.48527 3.51472z" fill="#ffffff"/></svg>
