<svg xmlns="http://www.w3.org/2000/svg" viewBox="0 0 182.15948486328125 56.71824645996094" fill="none"><path d="M90.75258 48.25069c-6.53-0.25-12.72 1.07-18.53 3.29-3.66 1.4-7.36999 2.73-11.35 3.68-7.86 1.89-15.76 2.04-23.67 0.17-3.15-0.75-6.26-1.57-9.36-2.42-6.42-1.77-13.04-2.59-19.99-2.04-1.11 0.09-2.24 0.19-3.31-0.09-2.24-0.59-4.29-1.27-4.47-3.21-0.2-2.05-0.19-4.03 2.81-5.26 2.34-0.96 4.94-1.48999 7.65-1.81999 7.16-0.88 14.05-0.64001 20.5 1.89999 1.81 0.71 3.72 1.31 5.56 2 5.28 1.96 10.78 2.25 16.52 1.05 3.09-0.65 5.96-1.62 8.83-2.6 3.3-1.14 6.55-2.36 9.94-3.36 11.44-3.39 22.99-3.7 34.61-0.34999 2.05 0.59 4.12 1.14999 6.17 1.71999 5.81 1.63 11.79 1.71 17.87999 0.87 6.80001-0.94 13.37001-2.47 20.20001-3.34 9.94001-1.26 18.65 0.37 26.42 4.55 2.31 1.25 2.53 2.4 0.81 4.08-2.45 2.4-4.29999 2.87-8.12 1.65-6.94-2.2-13.93-1.87-21.02-0.52-3.22 0.61-6.36 1.39-9.36999 2.38-7.08001 2.33-14.43001 2.78-22.08001 1.54-4.46-0.72-8.92-1.42-13.24-2.46-4.25-1.03-8.62-1.52-13.39-1.4l0-0.01z m-71.81-27.31c4.04 0.15 7.88 0.6 11.29 1.8 10.21 3.61 20.24 2.93 30.38-0.11 6.91-2.07 14.04-3.64 21.62-4.38 6.05-0.58 11.85-0.11 17.64 0.92 1.2 0.21 2.41001 0.43 3.54 0.75 8.85 2.48 17.57999 2.12 26.37999-0.2 7.51999-1.99 15.33002-3.23 23.49002-3.44 6.22-0.16 12.08 0.47 17.47 2.67 2.64 1.08 5.44001 1.98 8.09 3.05 4.14 1.67 4.44 5.47 0.7 7.58-0.82001 0.46-1.76 0.63-2.76999 0.48-0.71001-0.11-1.43001-0.29-2.05-0.55-7.78-3.21-16.14002-3.32-24.79001-2.14-5.24001 0.72-10.26 1.91-15.34 2.96-3.32001 0.68-6.64001 1.32-10.08001 1.68-7.2 0.76-14.06-0.12-20.78-1.76-2.08999-0.51-4.18001-1.04-6.21-1.65-5.2-1.57-10.50999-1.64-15.98-0.75-3.75 0.61-7.35 1.47-10.93 2.4-5.43 1.42-10.91 2.67-16.7 3.32-8.1 0.91-15.78 0.04-23.27-2.01-2.98-0.82-5.9-1.73-9.05-2.24-3.73-0.6-7.32-0.53-10.88 0.56-4.59 1.41-6.72 0.35-6.46-3.03 0.08-1.07 0.81-1.86 1.96-2.56 3.66-2.23 8.14-3.03 12.76-3.37l-0.03 0.02z m26.78-7.23c-3.43 0.05-6.63-0.61-9.83-1.26-4.74-0.96-9.38-2.12-14.24-2.82-4.55-0.65-8.85-0.41-12.95 1.12-1.31 0.49-2.66 0.92-4.21 0.43-2.94-0.93-3.6-2.83-1.46-4.47 2.09-1.6 4.85-2.55 7.85-3.17 6.02-1.23 12.01-0.94 17.91 0.33 2.71 0.58 5.4 1.24 7.96 2.07 5.57 1.8 11.21 1.76 17.01 0.64 5.95-1.15 11.82001-2.46 17.67001-3.83 3.63-0.85 7.32-1.5 11.15999-1.81 4.46-0.37 8.65 0.11 12.63001 1.42 2.55 0.84 5.03 1.79 7.47999 2.75 4.14 1.63 8.48001 2.19 13.20001 1.35 3.36-0.6 6.65999-1.29 9.92-2.09 7.22-1.76 14.55998-3.21 22.18998-4.02 9.60001-1.02 18.22 0.11 25.74001 4.38 2.17 1.23 4.47999 2.35 6.64999 3.58 1.84 1.03 2.17002 1.91 1.23001 2.72-0.91999 0.8-2.44 0.94-4.36 0.17-3.61999-1.46-7.28999-2.77-11.42-3.51-8.5-1.52-16.91-1.46-25.26 0.38-4.94001 1.09-9.85 2.23-14.78 3.35-8.73 1.97-17.25 2.02-25.46-1.18-2.45999-0.96-5.23-1.49-7.86-2.23-5.42-1.52-10.84-1.39-16.36-0.3-3.7 0.73-7.2 1.76-10.64999 2.89-6.22 2.04-12.90001 2.82-19.74001 3.12l-0.02-0.01z" fill="#f3c395"/></svg>
