<svg xmlns="http://www.w3.org/2000/svg" viewBox="0 0 94.01941680908203 93.25225830078125" fill="none"><path d="M2.8778 42.05385c6.07677-13.41994 14.09078-25.36096 26.53345-33.90889 2.38367-1.63953 4.85917-3.13738 7.48958-4.35322 13.42837-6.21507 26.05236-4.82402 37.77487 4.42617 0.96639 0.75796 1.61 0.98563 2.64003 0.18117 1.48515-1.15227 3.18874-1.95946 5.0634-2.32363 3.93462-0.75397 6.78967 1.81259 6.3994 5.77505-0.1259 1.26759-0.36346 2.52136-0.88783 3.68439-0.54055 1.2052-0.39256 2.19089 0.44436 3.28619 3.81042 5.00389 5.37516 10.70365 5.62431 16.8854 0.33919 8.66431-0.72576 17.05093-4.03508 25.08894-0.74166 1.80532-1.53631 3.57096-2.57933 5.22191-4.66003 7.31638-10.19949 13.92754-16.82222 19.55204-5.88522 4.99804-12.86696 7.4949-20.69402 7.67408-1.54414 0.03627-3.08664-0.03329-4.60243-0.3248-2.94542-0.57899-5.88882-1.13785-8.81238-1.82456-3.93207-0.92866-7.24712-3.03316-10.29475-5.6059-1.96716-1.65489-3.90115-3.34543-5.90796-4.94781-1.66985-1.33758-3.40569-1.86838-5.70636-1.2323-4.40109 1.23289-7.2084-1.50887-6.00943-5.87694 1.11764-4.07999 1.28675-4.26665-2.58894-7.19593-4.52859-3.41209-6.26778-7.92095-5.84505-13.39005 0.29033-3.77827 1.43584-7.29603 2.81638-10.79131z m13.40948 4.77908c-1.14255 1.75789-1.93558 3.62091-2.7541 5.47413-0.40501 0.92825-1.18582 1.48971-2.27239 1.12104-0.93891-0.32167-1.35472-1.16825-1.19689-2.03655 0.49051-2.80158 1.93853-5.17759 3.69197-7.35897 0.44665-0.55426 1.19708-0.60489 1.88801-0.27196 0.69942 0.33619 0.99631 0.93393 0.95095 1.66156-0.0324 0.49071-0.20841 0.97468-0.31078 1.41918l0.00323-0.00843z m2.75114-9.12308c1.13244-1.85853 2.68318-3.74034 4.48067-5.40167 0.66835-0.62398 1.55308-0.71981 2.32207-0.05698 0.73824 0.64136 0.87532 1.47772 0.389 2.28768-0.43048 0.71527-0.99567 1.34982-1.51313 2.01236-0.88805 1.1202-1.75385 2.25863-2.68639 3.3424-0.6542 0.76487-1.54584 1.15801-2.48756 0.56434-0.94496-0.58524-0.93357-1.52911-0.50466-2.74813z m11.89997 5.48665c1.37111-1.71854 2.75234-3.53963 4.77594-4.69811 1.15056-0.66144 2.20721-0.46875 2.72415 0.36827 0.59501 0.96374 0.24179 1.75706-0.48239 2.47572-1.25578 1.24031-2.49782 2.49558-3.77261 3.70924-0.354 0.33825-0.80144 0.64063-1.25454 0.80537-0.68126 0.25134-1.35603 0.07943-1.85317-0.47906-0.56793-0.6534-0.54279-1.37911-0.13212-2.16973l-0.00526-0.0117z m6.74613-16.83985c1.24676 0.45918 1.7653 1.59676 1.0856 2.55504-0.9799 1.3849-1.74742 2.85132-2.45143 4.38083-0.3338 0.74271-1.02438 1.14529-1.88321 0.97046-0.85883-0.17482-1.26089-0.80326-1.39595-1.61949-0.29802-1.78831 1.72091-5.47399 3.36946-6.13781 0.48627-0.20039 0.98224-0.2229 1.27027-0.16073l0.00526 0.0117z m-1.11901 28.58845c-1.26295-0.41701-1.67506-1.95884-0.61065-2.82752 1.44915-1.18544 3.15596-2.00106 5.08685-2.13078 1.03037-0.06897 1.85114 0.45893 2.07639 1.52266 0.20867 0.97995-0.3553 1.58593-1.23924 1.93364-1.18251 0.46534-2.36501 0.93068-3.56127 1.38106-0.57042 0.21648-1.15297 0.31219-1.75208 0.12094z m-7.43615 9.5213c0.96856-1.25379 2.28138-2.41415 4.06625-2.89987 0.88556-0.25033 1.71849-0.00804 2.197 0.85293 0.48053 0.8811 0.20619 1.64664-0.54913 2.21788-1.06522 0.81999-2.14742 1.63344-3.25591 2.38844-0.75612 0.52256-1.58666 0.62952-2.3342-0.06378-0.73055-0.68679-0.68802-1.48324-0.1325-2.49886l0.00849 0.00326z m-13.43683-5.41857c-0.76223 1.07174-1.55279 2.26806-2.75636 3.093-0.83623 0.5789-1.78408 0.73759-2.57166-0.02914-0.80134-0.78169-0.66454-1.69677-0.00265-2.50708 0.7958-0.98145 1.60536-1.94794 2.48692-2.84809 0.70719-0.72518 1.62592-1.01116 2.51707-0.31111 0.86041 0.67857 0.88542 1.57837 0.33517 2.60568l-0.00849-0.00326z m4.68174-5.39223c-1.0356-0.34911-1.4882-1.48074-0.85502-2.49558 0.72543-1.1536 1.72633-2.08535 2.93433-2.74409 1.07248-0.58498 2.2161-0.33954 2.7383 0.50917 0.60876 0.9787 0.24705 1.76875-0.54712 2.44119-0.71082 0.60768-1.39939 1.23357-2.12599 1.80616-0.62505 0.48578-1.3403 0.72409-2.153 0.47989l0.0085 0.00326z m6.6162 6.42912c-0.34474 0.99976-3.32433 3.04917-4.43318 3.06867-0.64807 0.01251-1.16385-0.24351-1.50363-0.78032-0.39034-0.63361-0.42184-1.31334 0.04828-1.87794 0.97139-1.18498 2.13856-2.16902 3.67058-2.52923 1.49157-0.35639 2.67274 0.83233 2.2232 2.13052l-0.00525-0.0117z" fill="#ffffff"/></svg>
