<svg xmlns="http://www.w3.org/2000/svg" viewBox="0 0 164.02099609375 89.0213623046875" fill="none"><path d="M99.26451 36.39256c0.06335 1.93789-0.45924 3.20864-1.20355 4.39997-4.75087 7.49741-8.53573 15.4237-11.00618 23.95359-0.14252 0.47653-0.33257 0.95306-0.58595 1.39782-1.39359 2.49384-3.54731 2.74799-5.49517 0.6036-1.71031-1.89024-2.7555-4.24111-3.83236-6.48081-3.16724-6.54435-7.68057-12.10387-12.39978-17.5522-0.58594-0.66714-1.21939-1.28663-1.78949-1.95378-2.72383-3.25629-2.70799-4.73353 0.36424-7.73567 3.674-3.60574 6.36617-7.79922 8.17149-12.58041 2.04288-5.41656 3.97489-10.88078 5.55852-16.45618 0.14253-0.47653 0.26921-0.96895 0.44341-1.44548 0.52259-1.36605 1.34608-2.49384 2.96138-2.54149 1.6153-0.04765 2.50212 1.03248 3.08806 2.38265 0.25338 0.57184 0.5226 1.15956 0.66512 1.76316 2.34376 9.70534 7.15798 18.23523 12.55814 26.4951 1.25106 1.90612 2.31209 3.90755 2.50212 5.75013z m-72.40324 22.52401c0.03167-2.5415 1.02936-3.97109 2.64465-4.8765 4.24411-2.36677 6.47702-6.21078 8.12399-10.51544 1.4411-3.74871 2.85052-7.5133 4.27578-11.27788 0.31672-0.82599 0.60178-1.66786 0.98184-2.44619 1.07687-2.22381 2.34376-3.06568 4.00657-2.70034 1.67864 0.36534 3.07223 2.09674 3.19892 4.17758 0.11085 1.74728 0.11085 3.49455 0.41174 5.24183 1.07687 6.11547 3.56316 11.45262 8.32986 15.64609 2.94554 2.58915 3.23059 4.06639 1.15604 6.76673-4.84589 6.32197-7.22132 13.73997-9.73928 21.1103-0.5701 1.66786-0.95018 3.38336-1.88451 4.90827-0.74431 1.2231-1.56778 2.33499-3.21475 2.2238-1.6628-0.11119-2.37544-1.30251-2.85053-2.65268-1.78949-5.13065-4.22827-9.92773-7.04712-14.56596-1.50444-2.49384-3.2306-4.78118-5.60603-6.54434-1.67864-1.25486-2.708-2.93861-2.80301-4.51116l0.01584 0.01589z m87.2893 7.41799c0.07918 1.06425-0.25338 1.73139-0.77597 2.31911-4.18077 4.78119-6.44534 10.43602-7.72808 16.55149-0.34839 1.66785-0.38006 3.92343-2.77134 3.81224-2.02704-0.09531-2.07454-2.19204-2.5813-3.71693-1.74198-5.3848-3.48397-10.73782-7.44303-15.05837-1.71031-1.87435-1.72614-3.38336-0.07918-5.43244 3.11974-3.89166 5.33681-8.21221 6.98377-12.88221 0.33256-0.95306 0.82349-1.84259 1.59946-2.52561 1.85284-1.63609 4.05408-1.47724 5.65354 0.42888 0.7443 0.88952 1.10853 1.96966 1.40942 3.06568 1.17188 4.33642 1.72615 8.92701 5.21012 12.31037 0.33256 0.31769 0.41175 0.88952 0.50676 1.1119l0.01583 0.01589z m2.85053-39.47261c1.77366-0.03177 2.64464 0.66714 3.16724 1.74728 1.93202 3.97109 4.59251 7.48153 7.04712 11.13493 1.90035 2.82742 1.7895 4.17759-0.3959 6.76673-2.10622 2.52561-3.97489 5.17829-5.36849 8.16456-0.2217 0.44476-0.45924 0.90541-0.74429 1.30251-1.69447 2.28735-4.00657 2.35088-5.51101-0.07942-2.13789-3.46279-4.75088-6.40139-7.93396-8.97466-2.81885-2.28735-2.85051-4.54293-0.09501-6.94146 3.30977-2.89095 5.85941-6.17901 7.0788-10.43601 0.44341-1.57255 1.42525-2.6368 2.73966-2.68446l0.01584 0z m46.9861 6.54435c0 1.54078-0.71263 2.58915-1.63114 3.46279-2.78717 2.65269-4.76669 5.82956-6.41366 9.2447-0.22171 0.44476-0.44342 0.90541-0.74431 1.31839-1.6153 2.19204-3.68983 2.2397-5.19428 0-1.10853-1.66785-1.93203-3.52632-2.89804-5.28948-1.37774-2.5415-2.88218-4.95592-5.14677-6.89381-2.29625-1.96966-2.42294-3.93932 0-5.65483 3.95906-2.77976 5.74855-6.86204 7.80727-10.8649 0.63345-1.2231 1.25105-2.46207 1.96368-3.65339 0.68095-1.14367 1.63112-1.92201 3.08806-1.79494 1.4886 0.14296 2.13791 1.17544 2.53381 2.44619 0.14253 0.47653 0.30089 0.96895 0.38007 1.46136 0.66511 4.55881 2.58131 8.64108 4.87756 12.56452 0.69679 1.19133 1.45693 2.36677 1.40943 3.6534l-0.03168 0z m-11.56044 6.83027c1.77365-2.23969 3.23059-4.09816 4.73503-5.94074 0.63345-0.77833 0.72845-1.5249 0.25337-2.41442-1.10853-2.06497-2.18539-4.14581-3.57898-6.7985-1.75783 2.66857-3.54732 4.70176-5.65353 6.43316-0.69679 0.57184-0.61762 1.35017-0.06336 1.98554 1.64698 1.89024 2.75551 4.1617 4.30747 6.71908l0 0.01588z m-130.9498 0.17473c-0.01584 1.76316-0.71263 2.81153-1.58362 3.74871-2.28042 2.41442-4.11742 5.083-5.19429 8.25986-0.47509 1.38194-1.31441 2.50972-2.91386 2.60503-1.59946 0.11119-2.51796-0.96894-3.23059-2.22381-0.68096-1.20721-1.34608-2.4303-1.99537-3.6534-1.07686-2.0332-2.47045-3.74871-4.30745-5.19418-2.80301-2.17616-3.00888-3.89167-0.50676-6.17901 3.72151-3.39925 6.5562-7.3068 8.29818-12.00857 0.50676-1.38194 1.37775-2.47796 3.02472-2.38265 1.4411 0.07942 2.3596 1.08013 2.61298 2.38265 0.85516 4.54292 2.94554 8.54579 5.16261 12.51687 0.41174 0.74657 0.5226 1.66785 0.64929 2.11262l-0.01584 0.01588z m-8.75744-5.05122c-5.8594 4.86061-5.87524 4.9718-1.99536 9.6418 0.12669 0.15884 0.44341 0.17473 0.68096 0.25415 4.89339-4.59058 4.92507-4.84473 1.33024-9.91184l-0.01584 0.01589z" fill="#f3c395"/></svg>
