<svg xmlns="http://www.w3.org/2000/svg" viewBox="-33.61122800000001 -61.651328 307.302656 307.302656" fill="none"><path d="M208.0401 56.8l0-16.8c0-10.60866-4.21428-20.78282-11.71573-28.28427-7.50145-7.50146-17.67561-11.71573-28.28427-11.71573l-96 0c-10.60866 0-20.78281 4.21427-28.28427 11.71573-7.50146 7.50145-11.71573 17.67561-11.71573 28.28427l0 16.8c-9.04231 1.83612-17.1718 6.74184-23.01102 13.88594-5.83922 7.1441-9.02908 16.08722-9.02908 25.31406 0 9.22684 3.18985 18.16998 9.02908 25.31407 5.83922 7.14411 13.96871 12.04981 23.01102 13.88593l0 32.8c0 4.24347 1.68571 8.31313 4.68629 11.31371 3.00058 3.00058 7.07024 4.68629 11.31371 4.68629l144 0c4.24347 0 8.31313-1.68571 11.31371-4.68629 3.00058-3.00058 4.68629-7.07024 4.68629-11.31371l0-32.8c9.04231-1.83612 17.1718-6.74182 23.01102-13.88593 5.83922-7.14409 9.02908-16.08723 9.02908-25.31407 0-9.22684-3.18986-18.16997-9.02908-25.31406-5.83922-7.1441-13.96871-12.04981-23.01102-13.88594z m-136-40.8l96 0c6.36519 0 12.4697 2.52856 16.97057 7.02944 4.50087 4.50087 7.02943 10.60537 7.02943 16.97056l0 16.8c-9.02887 1.85643-17.14162 6.769-22.9707 13.90963-5.82909 7.14063-9.01804 16.07262-9.0293 25.29037l-80 0c-0.01126-9.21774-3.20021-18.14973-9.0293-25.29037-5.82909-7.14063-13.94183-12.0532-22.9707-13.90963l0-16.8c0-6.3652 2.52857-12.46969 7.02944-16.97056 4.50087-4.50087 10.60537-7.02944 16.97056-7.02944z m128.39 104l-0.39 0c-2.12173 0-4.15657 0.84285-5.65686 2.34314-1.50029 1.50029-2.34314 3.53513-2.34314 5.65686l0 40-144 0 0-40c0-2.12173-0.84286-4.15657-2.34315-5.65686-1.50029-1.50029-3.53512-2.34314-5.65685-2.34314l-0.39 0c-4.72939-0.07687-9.33061-1.5495-13.22575-4.23294-3.89514-2.68344-6.9105-6.45803-8.66735-10.84967-1.75685-4.39164-2.17684-9.20449-1.20722-13.83405 0.96962-4.62956 3.28561-8.86939 6.65708-12.18696 3.37147-3.31756 7.64807-5.56491 12.29266-6.45978 4.64459-0.89487 9.45005-0.39736 13.8128 1.43004 4.36275 1.8274 8.08825 4.90321 10.70856 8.8411 2.62031 3.93789 4.01859 8.56225 4.01922 13.29226l0 40c0 2.12173 0.84286 4.15657 2.34315 5.65686 1.50029 1.50029 3.53512 2.34314 5.65685 2.34314 2.12174 0 4.15656-0.84285 5.65685-2.34314 1.50029-1.50029 2.34315-3.53513 2.34315-5.65686l0-24 80 0 0 24c0 2.12173 0.84285 4.15657 2.34314 5.65686 1.50029 1.50029 3.53513 2.34314 5.65686 2.34314 2.12173 0 4.15657-0.84285 5.65686-2.34314 1.50029-1.50029 2.34314-3.53513 2.34314-5.65686l0-40c0.00063-4.73001 1.39891-9.35437 4.01923-13.29226 2.62031-3.93789 6.34581-7.0137 10.70855-8.8411 4.36275-1.8274 9.1682-2.32491 13.81279-1.43004 4.6446 0.89487 8.92119 3.14223 12.29267 6.45978 3.37147 3.31756 5.68747 7.55739 6.65709 12.18696 0.96962 4.62956 0.54963 9.44241-1.20722 13.83405-1.75685 4.39164-4.77222 8.16623-8.66736 10.84967-3.89514 2.68344-8.49637 4.15607-13.22575 4.23294z" fill="#ffffff"/></svg>
