<svg xmlns="http://www.w3.org/2000/svg" viewBox="0 0 256 256" fill="none"><path d="M120 100c0-2.37337 0.70379-4.69345 2.02237-6.66684 1.31858-1.97339 3.19273-3.51147 5.38544-4.41972 2.19271-0.90825 4.6055-1.14589 6.93327-0.68286 2.32777 0.46302 4.46597 1.60591 6.1442 3.28414 1.67822 1.67823 2.82112 3.81642 3.28414 6.14419 0.46303 2.32777 0.22538 4.74058-0.68287 6.93329-0.90825 2.19271-2.44632 4.06686-4.41971 5.38544-1.97339 1.31858-4.29346 2.02236-6.66684 2.02236-3.1826 0-6.23484-1.26428-8.48528-3.51472-2.25043-2.25043-3.51472-5.30269-3.51472-8.48528z m87.8-30.62c-1.38482 20.22918-10.391 39.18013-25.20129 53.02906-14.81029 13.84892-34.32221 21.56486-54.59871 21.59094l-32 0c-3.18259 0-6.23485 1.26428-8.48528 3.51472-2.25044 2.25045-3.51472 5.30268-3.51472 8.48528 0 3.1826 1.26428 6.23483 3.51472 8.48528 2.25043 2.25044 5.30269 3.51472 8.48528 3.51472l56 0c2.12173 0 4.15657 0.84285 5.65686 2.34314 1.50029 1.50029 2.34314 3.53513 2.34314 5.65686 0 2.12173-0.84285 4.15657-2.34314 5.65686-1.50029 1.50029-3.53513 2.34314-5.65686 2.34314l-48 0 0 16 32 0c2.12173 0 4.15657 0.84285 5.65686 2.34314 1.50029 1.50029 2.34314 3.53513 2.34314 5.65686 0 2.12173-0.84285 4.15657-2.34314 5.65686-1.50029 1.50029-3.53513 2.34314-5.65686 2.34314l-56 0c-21.21732 0-41.56563-8.42854-56.56854-23.43146-15.00291-15.00291-23.43146-35.35122-23.43146-56.56854 0-21.21732 8.42855-41.56563 23.43146-56.56854 15.00291-15.00292 35.35122-23.43146 56.56854-23.43146l116 0c3.1826 0 6.23483-1.26428 8.48528-3.51472 2.25044-2.25044 3.51472-5.30269 3.51472-8.48528 0-3.1826-1.26428-6.23485-3.51472-8.48528-2.25045-2.25043-5.30268-3.51472-8.48528-3.51472l-84 0c-6.3652 0-12.4697-2.52856-16.97057-7.02944-4.50087-4.50087-7.02943-10.60537-7.02943-16.97056 0-2.12173 0.84286-4.15656 2.34315-5.65685 1.50029-1.50029 3.53512-2.34315 5.65685-2.34315 2.12174 0 4.15656 0.84285 5.65685 2.34315 1.50029 1.50029 2.34315 3.53512 2.34315 5.65685 0 2.12173 0.84286 4.15656 2.34315 5.65686 1.50029 1.50029 3.53512 2.34314 5.65685 2.34314l84 0c6.37158 0.00592 12.5506 2.18476 17.51662 6.1767 4.96602 3.99194 8.42204 9.55822 9.79731 15.77961 1.37528 6.22138 0.58756 12.72577-2.23307 18.439-2.82064 5.71323-7.50548 10.2936-13.28086 12.98469z m-173 111.90999l33.22-23.72999c0-0.51 0-1 0-1.56-0.00574-2.52704 0.33065-5.04321 1-7.48l-52.02-23.65c-1.8091 10.14593-1.13103 20.57923 1.97608 30.40567 3.10711 9.82643 8.55061 18.75289 15.86392 26.01432l-0.04 0z m39-8.19999l-25.68 18.37001c9.69005 5.60237 20.68699 8.54821 31.88 8.53999l8 0 0-17.17c-5.62051-1.68999-10.57166-5.09566-14.16-9.74l-0.04 0z m14.2-43.92l0-57.17-8 0c-12.27507 0.01376-24.28783 3.55344-34.6091 10.19791-10.32127 6.64447-18.51657 16.11404-23.6109 27.28209l55.87 25.39c3.00526-2.6146 6.53382-4.55785 10.35-5.7z m103.5-57.17l-87.5 0 0 56 24 0c15.58327-0.01881 30.62584-5.71461 42.31345-16.0218 11.6876-10.30719 19.21951-24.51957 21.18655-39.9782z" fill="#ffffff"/></svg>
