<svg xmlns="http://www.w3.org/2000/svg" viewBox="0 0 17.45334815979004 23.10198211669922" fill="none"><path d="M6.15 13.0967c-0.506 2.726-1.122 5.34-2.95 6.705-0.563-4.12 0.829-7.215 1.475-10.5-1.102-1.91 0.133-5.755 2.457-4.808 2.86 1.166-2.477 7.102 1.10601 7.844 3.741 0.774 5.269-6.683 2.94899-9.109-3.352-3.501-9.757-0.079-8.969 4.934 0.192 1.226 1.421 1.598 0.491 3.29-2.145-0.491-2.785-2.233-2.702-4.556 0.132-3.8 3.317-6.462 6.511-6.83 4.04-0.466 7.831 1.527 8.354 5.44 0.59 4.416-1.823 9.2-6.14199 8.855-1.171-0.093-1.663-0.69-2.58001-1.265z" fill="#055346"/></svg>
