<svg xmlns="http://www.w3.org/2000/svg" viewBox="0 0 21 17.063560485839844" fill="none"><path d="M7.547 19.50121c9.057 0 14.01-7.503 14.01-14.01 0-0.213 0-0.425-0.014-0.636 0.96393-0.69734 1.79593-1.56083 2.457-2.55-0.89855 0.39866-1.85183 0.66023-2.828 0.776 1.02765-0.6157 1.79667-1.58373 2.164-2.724-0.96634 0.57344-2.02355 0.97759-3.126 1.195-0.74245-0.78946-1.72439-1.31222-2.79387-1.48739-1.06948-0.17517-2.16688 0.00701-3.1224 0.51836-0.95551 0.51134-1.71587 1.32335-2.1634 2.31035-0.44754 0.98701-0.55731 2.094-0.31233 3.14968-1.95759-0.09812-3.87268-0.60678-5.62095-1.49297-1.74827-0.8862-3.29066-2.13012-4.52705-3.65103-0.62951 1.08406-0.82222 2.36729-0.5389 3.58844 0.28332 1.22115 1.02137 2.28843 2.0639 2.98456-0.78371-0.0234-1.55028-0.23502-2.235-0.617l0 0.063c0.00031 1.1368 0.3938 2.23851 1.11373 3.11829 0.71994 0.87978 1.722 1.48348 2.83627 1.70871-0.72485 0.19746-1.48531 0.22619-2.223 0.084 0.3146 0.97841 0.92711 1.83404 1.75188 2.44724 0.82477 0.6132 1.82056 0.95331 2.84812 0.97276-1.02099 0.80219-2.19009 1.39525-3.44045 1.74529-1.25036 0.35004-2.55745 0.45019-3.84655 0.29471 2.25155 1.44533 4.87147 2.21218 7.547 2.209" fill="#055346"/></svg>
