<svg xmlns="http://www.w3.org/2000/svg" viewBox="0 0 24 24" fill="none"><path d="M18.406 7.034c0.79529 0 1.44-0.64471 1.44-1.44 0-0.79529-0.64471-1.44-1.44-1.44-0.79529 0-1.44 0.64471-1.44 1.44 0 0.79529 0.64471 1.44 1.44 1.44z m-6.406-1.196c-1.21873 0-2.41009 0.36139-3.42342 1.03848-1.01334 0.67709-1.80313 1.63946-2.26952 2.76542-0.46639 1.12596-0.58842 2.36493-0.35066 3.56025 0.23776 1.19531 0.82464 2.29327 1.68641 3.15504 0.86177 0.86177 1.95973 1.44864 3.15504 1.68641 1.19531 0.23776 2.43428 0.11573 3.56025-0.35065 1.12596-0.46639 2.08833-1.25619 2.76542-2.26953 0.67709-1.01334 1.03849-2.2047 1.03848-3.42342 0-1.63426-0.64921-3.20159-1.80481-4.35719-1.1556-1.1556-2.72293-1.80481-4.35719-1.80481z m0 10.162c-0.79112 0-1.56448-0.2346-2.22228-0.67412-0.6578-0.43952-1.17049-1.06424-1.47324-1.79515-0.30275-0.7309-0.38196-1.53517-0.22762-2.31109 0.15434-0.77593 0.5353-1.48866 1.09471-2.04807 0.55941-0.55941 1.27214-0.94037 2.04807-1.09471 0.77592-0.15434 1.58019-0.07513 2.31109 0.22762 0.7309 0.30275 1.35562 0.81544 1.79515 1.47324 0.43953 0.6578 0.67412 1.43116 0.67412 2.22228 0 1.06086-0.42143 2.07828-1.17157 2.82843-0.75015 0.75015-1.76756 1.17157-2.82843 1.17157z m0-13.838c3.204 0 3.584 0.012 4.849 0.07 0.76084 0.00903 1.51447 0.14873 2.228 0.413 0.51766 0.19969 0.98779 0.50555 1.38012 0.89788 0.39233 0.39233 0.69819 0.86246 0.89788 1.38012 0.26427 0.71353 0.40397 1.46716 0.413 2.228 0.058 1.265 0.07 1.645 0.07 4.85 0 3.205-0.012 3.583-0.07 4.848-0.00903 0.76084-0.14873 1.51447-0.413 2.228-0.19969 0.51766-0.50555 0.98779-0.89788 1.38012-0.39233 0.39233-0.86246 0.69819-1.38012 0.89788-0.71353 0.26427-1.46716 0.40397-2.228 0.413-1.265 0.058-1.645 0.07-4.849 0.07-3.204 0-3.584-0.012-4.849-0.07-0.76084-0.00903-1.51447-0.14873-2.228-0.413-0.51766-0.19969-0.98779-0.50555-1.38012-0.89788-0.39233-0.39233-0.69819-0.86246-0.89788-1.38012-0.26427-0.71353-0.40397-1.46716-0.413-2.228-0.058-1.265-0.07-1.645-0.07-4.849 0-3.204 0.012-3.584 0.07-4.849 0.00903-0.76084 0.14873-1.51447 0.413-2.228 0.19969-0.51766 0.50555-0.98779 0.89788-1.38012 0.39233-0.39233 0.86246-0.69819 1.38012-0.89788 0.71353-0.26427 1.46716-0.40397 2.228-0.413 1.265-0.058 1.645-0.07 4.849-0.07z m0-2.162c-3.259 0-3.668 0.014-4.948 0.072-0.99523 0.0201-1.97984 0.20877-2.912 0.558-0.79728 0.3083-1.52134 0.77978-2.12578 1.38422-0.60444 0.60444-1.07592 1.32851-1.38422 2.12578-0.34934 0.93247-0.53802 1.91744-0.558 2.913-0.058 1.28-0.072 1.687-0.072 4.947 0 3.26 0.014 3.668 0.072 4.948 0.0201 0.99523 0.20877 1.97984 0.558 2.912 0.3083 0.79727 0.77978 1.52134 1.38422 2.12578 0.60444 0.60444 1.32851 1.07592 2.12578 1.38422 0.93247 0.34934 1.91744 0.53802 2.913 0.558 1.28 0.058 1.688 0.072 4.947 0.072 3.259 0 3.668-0.014 4.948-0.072 0.99556-0.01998 1.98053-0.20866 2.913-0.558 0.79728-0.3083 1.52134-0.77978 2.12578-1.38422 0.60444-0.60444 1.07592-1.32851 1.38422-2.12578 0.349-0.93253 0.53734-1.9175 0.557-2.913 0.058-1.28 0.072-1.687 0.072-4.947 0-3.26-0.014-3.668-0.072-4.948-0.0201-0.99523-0.20877-1.97984-0.558-2.912-0.3083-0.79728-0.77978-1.52134-1.38422-2.12578-0.60444-0.60444-1.32851-1.07592-2.12578-1.38422-0.93253-0.349-1.9175-0.53734-2.913-0.557-1.28-0.06-1.687-0.073-4.947-0.073z" fill="#055346"/></svg>
