<svg xmlns="http://www.w3.org/2000/svg" viewBox="0 0 42.730987548828125 99.32952880859375" fill="none"><path d="M17.80464 30.42274c-0.66219 0.29989-0.70491 0.92111-0.93988 1.39237-0.98261 1.99215-2.02929 3.94146-3.33232 5.74082-0.74764 1.02821-1.6448 1.82079-2.86237 2.24921-1.62344 0.59979-2.75557 0.23563-3.6741-1.17816-0.68355-1.04963-1.02533-2.22778-1.19621-3.44878-0.4913-3.51305-0.08544-6.98325 0.57674-10.43203 0.08544-0.42842 0.17089-0.83542 0.29906-1.26384 0.25633-0.814-0.08544-1.11389-0.8758-1.19957-0.72627-0.08568-1.45255-0.25705-2.17882-0.44984-0.96124-0.25705-1.85841-0.66406-2.58469-1.37095-1.2603-1.26384-1.3671-2.69904-0.34177-4.15567 0.59811-0.83542 1.43119-1.37095 2.32835-1.77794 1.96521-0.89968 3.90906-1.8422 5.91699-2.6562 2.00793-0.814 3.18279-2.22778 3.7809-4.24136 0.34178-1.11389 0.72627-2.22779 1.11077-3.32026 0.40586-1.11389 0.98261-2.12068 1.79433-2.99893 1.58071-1.67084 3.54593-1.75652 5.23344-0.19279 1.00397 0.94252 1.68752 2.09926 2.24291 3.36309 0.46994 1.07105 0.91852 2.1421 1.34574 3.23457 0.49131 1.221 1.34575 1.97073 2.60604 2.42057 1.96521 0.68547 3.99451 0.83542 6.02381 0.92111 1.85841 0.06426 3.69545 0.25706 5.5325 0.407 0.19225 0 0.36314 0.02142 0.55538 0.06426 1.43119 0.32132 2.84101 0.70689 3.35368 2.2492 0.55539 1.60657-0.04272 3.02036-1.08942 4.26279-0.85444 1.00679-1.94385 1.69226-3.14006 2.2492-2.28563 1.07105-4.54989 2.20636-6.85688 3.21315-1.06805 0.47126-1.02533 1.19957-0.91853 2.09926 0.29906 2.37773 0.57675 4.75546 0.85445 7.13318 0.23497 1.8422 0.04272 3.68442-0.2777 5.5052-0.06408 0.42842-0.19225 0.83541-0.36313 1.24242-0.8758 2.22779-2.86237 2.91326-4.95575 1.7351-0.8758-0.49268-1.55935-1.19958-2.22155-1.92789-1.92249-2.09926-3.41776-4.49841-4.72078-7.02608-0.32041-0.64263-0.53402-1.37095-1.08941-1.84221l0.06408 0z m6.85689 63.60299c-0.29905 0.14995-0.32041 0.42841-0.42722 0.64262-0.44858 0.9211-0.93989 1.84221-1.55935 2.67763-0.34178 0.47126-0.769 0.85684-1.34574 1.04963-0.74763 0.27847-1.28166 0.10711-1.73024-0.55695-0.32042-0.49268-0.46994-1.02821-0.55539-1.60657-0.23497-1.64941-0.04272-3.25599 0.27769-4.88399 0.04272-0.19279 0.08544-0.38558 0.14953-0.57837 0.12817-0.38557-0.04272-0.5141-0.40586-0.55695-0.34178-0.04284-0.68355-0.1071-1.02533-0.21421-0.44858-0.12852-0.8758-0.29989-1.21757-0.64262-0.59811-0.59978-0.64083-1.26384-0.14953-1.94931 0.27769-0.38558 0.66219-0.64264 1.08941-0.83543 0.91852-0.42842 1.81569-0.85684 2.75557-1.24241 0.93988-0.38557 1.49527-1.04963 1.77296-1.99215 0.14953-0.51411 0.34177-1.02821 0.51267-1.54232 0.19225-0.51411 0.44858-0.98537 0.83308-1.39236 0.74763-0.79258 1.66616-0.814 2.43515-0.08569 0.46994 0.42842 0.79036 0.98537 1.04669 1.56374 0.21361 0.49268 0.42722 1.00678 0.64083 1.49947 0.23497 0.57837 0.64083 0.9211 1.21758 1.13531 0.91852 0.32131 1.85841 0.38558 2.81965 0.42842 0.8758 0.02142 1.73024 0.1071 2.58468 0.19279 0.08544 0 0.17089 0 0.25633 0.04284 0.66219 0.14995 1.32439 0.34274 1.58071 1.04963 0.25633 0.74973 0 1.41379-0.51266 1.99215-0.40586 0.47126-0.91852 0.79258-1.45255 1.04963-1.06805 0.49268-2.1361 1.02821-3.20415 1.49947-0.4913 0.21421-0.4913 0.55694-0.42722 0.98537 0.14953 1.11389 0.25633 2.22778 0.40586 3.34167 0.10681 0.85684 0 1.71368-0.12816 2.57053-0.04272 0.19279-0.08544 0.38557-0.17089 0.57836-0.40586 1.04963-1.32438 1.37094-2.30699 0.81399-0.40586-0.23563-0.72627-0.55695-1.04669-0.89968-0.89716-0.98537-1.60208-2.09926-2.20018-3.27741-0.14953-0.2999-0.25633-0.64262-0.51267-0.85683z" fill="#f3c395"/></svg>
