<svg xmlns="http://www.w3.org/2000/svg" viewBox="0 0 26.34831965679885 88.85578675230097" fill="none"><g transform="translate(-13.75015284448805 9.297281893848126) rotate(-49.687016657376475 26.94878578186035 33.65213394165039)"><path d="M49.04842 0.34187c-0.52344 0.2659-0.96122 0.64576-1.29432 1.13007-2.04617 2.53554-4.03523 5.09957-6.14801 7.57813-2.14134 2.51655-4.27316 5.05209-6.39546 7.59713-4.29219 5.13755-8.51776 10.34159-12.64816 15.61209-4.1304 5.2705-8.07046 10.70244-11.82969 16.23885-3.71165 5.46043-7.09972 11.12029-10.37358 16.84662-0.06662 0.11396-0.13324 0.22791-0.19034 0.34188-0.28551 0.49381-0.21889 1.11108 0.27599 1.44346 0.4473 0.30389 1.16108 0.20891 1.44659-0.27541 1.90341-3.29525 3.97813-6.48604 6.14802-9.61036 2.27457-3.27626 4.61577-6.50504 7.03309-9.67683 2.44588-3.20979 4.98693-6.32461 7.55654-9.43943 2.53153-3.06734 5.11066-6.0872 7.74688-9.06907-0.07614 0.08547-0.15227 0.16144-0.21889 0.24691 3.63551-4.09295 7.35668-8.10993 11.15398-12.05094 1.83679-1.89928 3.64503-3.82705 5.50085-5.69784 1.93196-1.94676 3.94957-3.78907 5.92912-5.66936 0.6662-0.62676 1.09446-1.41496 1.15156-2.34561 0.04759-0.87367-0.24744-1.73784-0.81846-2.3931-0.59006-0.67424-1.44659-1.10158-2.35071-1.14906-0.0571 0-0.12372 0-0.18083 0-0.52344 0-1.02784 0.11396-1.50369 0.35137" fill="#f3c395"/></g></svg>
