<svg xmlns="http://www.w3.org/2000/svg" viewBox="0 0 1440 37.999996185302734" fill="none"><path d="M1411.1 37.3361c0.3788-1.65645 2.2159-1.07058 4.0719-1.02301 1.8464 0.33597 3.712-1.36578 4.1665-0.9981l0-2.04073c2.8218-0.11023 4.9144-1.77575 7.5469-1.65948 7.0639 0.21668 13.1147 2.00677 13.1147 2.00677m-1418.89505-5.33401c-8.14919-3.29327-15.63176-0.89692-21.10495 0.48999m46.1917-1.43675c-8.12931 1.43221-16.93755-0.42506-25.08675 0.94676m30.84118-4.03239c-5.41354-2.79875 2.37014 3.69567-5.75443 3.08563m14.61475-2.724c-3.64848-0.26878-7.01952-0.44695-8.86032-0.36163m9.06959 0.45525c-0.06818-0.02944-0.14014-0.05738-0.20927-0.09362m0.34184 0.15025c-0.04451-0.01661-0.08807-0.037-0.13257-0.05663m0.3693 0.13137c-0.07954-0.02341-0.16098-0.0453-0.23673-0.07474m0.34563 0.10646c-0.0322-0.00906-0.07197-0.02266-0.1089-0.03172m0.45453 0.0823c-0.11268-0.00604-0.22537-0.02416-0.34563-0.05058m1.8607 0.1525c-0.50187-0.02038-1.00847-0.05058-1.51507-0.10192m2.07754 0.11324c-0.18844-0.00302-0.37309-0.00453-0.56247-0.01132m1.49044 0.02341c-0.30491 0.00151-0.61455-0.00604-0.92797-0.01209m1.67131 0.00227c-0.24526 0.00453-0.4943 0.00906-0.74334 0.00982m1.11265-0.0136c-0.11931 0.00302-0.2481 0.00303-0.36931 0.00378m10.37541 0.96714c0 0-4.66547-0.50207-10.0061-0.97092m9.97769 0.13816l0.02841 0.83276m13.45383-0.23933c-4.49493-0.18531-8.98904-0.38312-13.48224-0.59343m20.47051 0.82597c-0.26135 0.03246-2.80856-0.05663-6.98827-0.23254m12.58236-4.26739c-0.10416 4.38045-5.61777 4.40706-5.59409 4.49993m35.20174-6.68166c-11.68594-0.14194-17.91792 2.35387-29.60765 2.18173m31.39165-2.74344c-0.58699 0.20238-1.18196 0.38971-1.784 0.56171m3.43163-1.14231c-0.54467 0.20164-1.09395 0.39522-1.64763 0.5806m1.66374-0.58588l-0.01611 0.00528m4.87854-1.94333c-1.59737 0.68275-3.21885 1.32902-4.86243 1.93805m4.89841-1.9524l-0.03598 0.01435m2.08511-0.90221c-0.67137 0.29595-1.3541 0.59191-2.04913 0.88786m2.1372-0.92713c-0.03125 0.01284-0.05966 0.02643-0.08807 0.03927m7.59053-3.52581c0 0-3.37956 1.66777-7.50246 3.48654m8.15013 0.93167c-1.76033-2.01507-0.64767-4.4182-0.64767-4.41821m0.74332 4.52617l-0.09565-0.10796m0.88727 0.80028c-0.31343-0.22121-0.56625-0.45375-0.79162-0.69232m0.84465 0.72479c-0.0161-0.01132-0.03693-0.02115-0.05303-0.03247m1.04161 0.58965c-0.37024-0.17516-0.70735-0.36089-0.98858-0.55718m2.71199 1.19514c-0.60036-0.16501-1.17787-0.37879-1.72341-0.63796m3.94205 0.73612c-0.77553-0.03473-1.53117-0.06871-2.21864-0.09816m4.06325 0.18497c-0.6316-0.0302-1.24994-0.05964-1.84461-0.08681m15.74349 0.77385c-5.14367-0.25141-9.93319-0.49829-13.89888-0.68704m14.18484 0.70063l-0.28596-0.01359m37.72148 0.92487c-8.47115 0.39788-24.0224-0.25745-37.43552-0.91128m40.75069 0.53605c-1.11144 0.08616-2.21758 0.21135-3.31517 0.37523m17.61273-0.12986c-4.76964-0.36617-9.53171-0.63569-14.29756-0.24537m35.66291 0.59946c-7.11988 0.95959-14.24452 0.20082-21.36535-0.35409m23.4192 0.03095c-0.68809 0.09316-1.37294 0.20091-2.05385 0.32314m8.27417-0.83502c-2.08548 0.05928-4.16362 0.2303-6.22032 0.51188m8.86034-0.55038c-0.88025-0.00302-1.7605 0.00981-2.64002 0.0385m3.04245-0.0385l-0.40243 0m3.07843 0.05436c-0.892-0.02944-1.784-0.04832-2.676-0.05436m2.88056 0.05964l-0.20456-0.00528m5.9429 0.31483c-1.91278-0.1291-3.82556-0.24236-5.73834-0.30955m7.6918 0.44394c-0.65527-0.0453-1.30575-0.0906-1.95346-0.13439m2.03391 0.13967l-0.08045-0.00528m17.09381 0.51641c-5.67395 0.33446-11.34414-0.1057-17.01336-0.51113m17.28701 0.4545c-0.0928 0.01887-0.18084 0.03624-0.27365 0.05663m6.4542-1.20195c-2.06144 0.30351-4.11911 0.70516-6.18055 1.14532m24.09436 0.29521c-5.96749-2.35406-11.94253-2.31858-17.91381-1.44053m31.43582 1.63305c-4.5083-0.07021-9.01374-0.28161-13.52201-0.19252m13.52961 0.19252l-0.0076 0m10.83752-0.33975c-3.6087 0.3639-7.21744 0.39486-10.82992 0.33975m35.19796 0.48017c-8.12173 1.23818-16.23874 1.66551-24.36804-0.81992m48.73136 0.00831c-8.11701 1.67608-16.24253 0.50811-24.36332 0.81161m25.72211-1.33255c-0.45074 0.15477-0.90427 0.32238-1.35879 0.52094m1.65994-0.62287c-0.10037 0.03246-0.19699 0.0672-0.30115 0.10193m1.61926-0.46735c-0.4422 0.10117-0.87591 0.22499-1.31811 0.36542m1.56335-0.41675c-0.08047 0.01812-0.16476 0.03321-0.24524 0.05133m1.40241-0.25669c-0.38162 0.05436-0.77176 0.12306-1.15717 0.20536m1.44596-0.24764c-0.09565 0.01208-0.1922 0.02869-0.28879 0.04228m1.92508-0.16157c-0.54801 0.01274-1.09448 0.05258-1.63629 0.11929m2.82086-0.11552c-0.39392-0.0151-0.7916-0.01434-1.18457-0.00377m1.34933 0.00755c-0.05588-0.00226-0.11172-0.00151-0.16476-0.00378m4.70148 0.71649c-1.51035-0.39184-3.02543-0.6425-4.53672-0.71271m16.72925 1.38088c-4.06702 0.47866-8.13309-0.84257-12.19253-0.66817m18.37683 1.20345c-2.06144-0.19479-4.12287-0.43336-6.1843-0.53528m9.35843 0.77311c-1.06113-0.05034-2.11981-0.12966-3.17413-0.23783m3.41558 0.24915l-0.24145-0.01132m10.09412-1.38918c-3.28296 1.31746-6.56116 1.54697-9.85267 1.4005m9.86118-1.40352l-0.00851 0.00302m0.71588-0.29445c-0.23294 0.10796-0.47443 0.1963-0.70737 0.29143m7.03656-1.01924c-2.10974 0.30426-4.21945 0.65533-6.32919 0.72781m7.72683-0.92033c-0.46588 0.05964-0.93176 0.12382-1.39764 0.19252m1.66281-0.22348c-0.08807 0.01132-0.17236 0.02038-0.26517 0.03096m1.72815-0.18271c-0.48889 0.04267-0.97665 0.09326-1.46298 0.15175m2.71668-0.23102c-0.41761 0.01736-0.83515 0.04454-1.2537 0.07927m1.43839-0.08531c-0.05966 0.00076-0.12409 0.00453-0.18469 0.00604m1.62402-0.0068c-0.47955-0.01673-0.95981-0.01649-1.43933 0.00076m3.40414 0.18874c-0.64785-0.10345-1.30472-0.1668-1.96481-0.1895m2.24606 0.23556c-0.0928-0.01585-0.18939-0.03247-0.28125-0.04606m2.48758 0.61985c-0.73953-0.25821-1.47152-0.44393-2.20633-0.57379m2.33417 0.62211c-0.03976-0.0151-0.08429-0.03322-0.12784-0.04832m2.43076 1.13097c-0.767-0.44997-1.53498-0.80407-2.30292-1.08265m2.30667 1.08342l-0.00375-0.00077m0.87213 0.5353c-0.28977-0.19856-0.57861-0.36541-0.86838-0.53453m1.12973 0.30123c-0.08902 0.07927-0.17328 0.14874-0.26135 0.2333m4.10297-2.1842c-1.28592 0.1895-2.56421 0.77311-3.84162 1.9509m3.87757-1.95618l-0.03595 0.00528m0.52172-0.05586c-0.16275 0.01139-0.32483 0.02826-0.48577 0.05058m1.85601-0.01056c-0.45736-0.05285-0.91192-0.07022-1.37024-0.04002m1.45545 0.05058l-0.08521-0.01056m0.49427 0.07323c-0.14014-0.02416-0.27271-0.0453-0.40906-0.06267m0.5303 0.08456l-0.12124-0.02189m1.49514 0.37221c-0.46209-0.14496-0.92032-0.26349-1.3739-0.35032m13.06748 3.64207c-3.89753 0.93317-7.79511-2.05885-11.69358-3.29175m12.02692 3.2102c-0.11172 0.03322-0.22446 0.05587-0.33334 0.08155m0.32956-0.08155l0.00378 0m0.01611-0.00452l-0.01989 0.00452m1.85311 0.20386c-0.61477-0.04682-1.2265-0.11636-1.83322-0.20838m3.31986 0.29068c-0.49658-0.01387-0.9924-0.04132-1.48664-0.0823m1.50654 0.08305l-0.0199-0.00075m0.01144 0l0.00846 0.00075m5.2033-0.23027c-1.7395 0.17591-3.47509 0.27633-5.21176 0.22952m5.22791-0.23104c-0.0054 0.00017-0.01084 0.00068-0.01615 0.00152m5.87186-0.76028c-1.95349 0.27029-3.90222 0.5587-5.85571 0.75876m8.36316-1.08341c-0.83612 0.0989-1.67228 0.20913-2.50745 0.32465m2.7887-0.35861l-0.28125 0.03396m3.05758-0.29369c-0.92843 0.06496-1.85424 0.15157-2.77633 0.25973m4.42776 0.11702c-0.55017-0.11476-1.10126-0.23707-1.65143-0.37675m2.07379 0.46282l-0.42236-0.08607m18.30396-1.24498c-5.95517 2.23401-11.91883 2.50959-17.8816 1.33105m22.25354-1.73422c-1.45446 0.01585-2.91275 0.1276-4.37194 0.40317m14.50677 0.40694c-3.37958-0.34805-6.75525-0.84861-10.13483-0.81011m11.292 0.92109c-0.38538-0.03473-0.77558-0.07097-1.15717-0.11098m1.63916 0.15477c-0.16095-0.01283-0.32104-0.02944-0.48199-0.04379m2.12579 0.15327c-0.55109-0.02869-1.09741-0.06418-1.6438-0.10948m2.06146 0.12834l-0.41766-0.01886m2.16565 0.05662c-0.58234 0.00377-1.16467-0.01284-1.74799-0.03776m2.35492 0.2635c-0.19696-0.06493-0.40142-0.13967-0.60693-0.22574m0.80011 0.27859c-0.06061-0.01888-0.12878-0.03171-0.19318-0.05285m0.61457 0.16761c-0.14222-0.03406-0.28278-0.07234-0.42139-0.11476m0.63824 0.15552c-0.07196-0.01434-0.14392-0.02491-0.21685-0.04076m0.61084 0.11098c-0.12879-0.01812-0.26142-0.04531-0.39399-0.07022m0.62317 0.09438c-0.07574-0.00755-0.15246-0.01358-0.22918-0.02416m0.61065 0.05889c-0.1278-0.00604-0.25268-0.02115-0.38147-0.03473m0.61066 0.04303c-0.07574-0.00226-0.14868-0.00377-0.22919-0.0083m0.61554 0.01359c-0.12878 0.00226-0.25757-0.00151-0.38635-0.00529m0.60699-0.00227c-0.07196 0.00226-0.14868 0.0068-0.22064 0.00756m0.61835-0.02945c-0.13257 0.01057-0.26135 0.01585-0.39771 0.02189m0.607-0.04303c-0.06818 0.00755-0.13635 0.0151-0.20929 0.02114m0.61926-0.06945c-0.13733 0.01888-0.27362 0.03472-0.40997 0.04831m0.59839-0.07776c-0.06061 0.00982-0.12403 0.02039-0.18842 0.02945m0.63446-0.10721c-0.15246 0.02944-0.29736 0.05512-0.44604 0.07776m0.59466-0.10721c-0.05206 0.01057-0.10034 0.02114-0.14862 0.02945m0.63916-0.13817c-0.16473 0.03926-0.3258 0.0755-0.49054 0.10872m0.5871-0.13212l-0.09656 0.0234m0.66663-0.17289c-0.18842 0.05285-0.38165 0.10192-0.57007 0.14949m0.57861-0.15251c-0.00378 0.00151-0.00378 0.00227-0.00854 0.00302m12.72662-1.30009c-4.23938-2.50354-8.48248 0.11022-12.71808 1.29707m13.72657-0.61154c-0.3371-0.26576-0.67041-0.48772-1.00849-0.68553m7.9361 2.35632c-2.31049-0.25745-4.62091-0.80406-6.92761-1.67079m6.93609 1.67154l-0.00848-0.00075m4.84631 0.114c-1.61072 0.10268-3.22241 0.06569-4.83783-0.11325m4.96289 0.10646l-0.12506 0.00679m1.64008-0.14798c-0.50659 0.0604-1.01312 0.10646-1.51502 0.14119m1.59082-0.15025c-0.02746 0.00377-0.05212 0.00529-0.0758 0.00906m3.17035-0.55567c-1.01575 0.23499-2.04938 0.41757-3.09455 0.54661m3.46857-0.63494c-0.125 0.02944-0.25 0.06115-0.37402 0.08833m1.52258-0.38655c-0.38159 0.1057-0.76318 0.20536-1.14856 0.29822m1.55859-0.41449c-0.13635 0.04077-0.2727 0.07776-0.41003 0.11627m1.89673-0.58361c-0.49017 0.16639-0.98596 0.32223-1.4867 0.46734m2.13343-1.03207c-0.2121 0.17516-0.42987 0.36013-0.64673 0.56473m0.83612-0.71195c-0.06061 0.04907-0.125 0.09664-0.18939 0.14722m0.65905-0.48772c-0.15625 0.1057-0.31341 0.21895-0.46966 0.3405m0.67139-0.47413l-0.20173 0.13363m0.82386-0.49377c-0.20832 0.10645-0.41382 0.22801-0.62213 0.36014m0.63818-0.37222c-0.00757 0.00377-0.01129 0.00831-0.01605 0.01208m7.51477-0.03397c-2.49988-0.8403-4.99884-1.26536-7.49872 0.02189m10.31573 1.03056c-0.94409-0.36542-1.88049-0.73687-2.81701-1.05245m13.23694 1.22459c-3.47235 2.39709-6.94849 1.17778-10.41993-0.17214m11.36023 0.36466c-0.31341-0.03699-0.62689-0.09664-0.9403-0.19252m1.02075 0.20083c-0.02838-0.00302-0.05676-0.00453-0.08045-0.00831m0.94782 0.037c-0.28882 0.00981-0.57855 0.00076-0.86737-0.02869m0.96777 0.02492l-0.1004 0.00377m0.97259-0.09362c-0.28881 0.0453-0.57867 0.07626-0.87219 0.08985m0.94507-0.09891c-0.02399 0.00449-0.04834 0.00752-0.07288 0.00906m1.00464-0.19328c-0.31341 0.07324-0.62304 0.1359-0.93176 0.18422m0.96393-0.19328l-0.03217 0.00906m0.94025-0.24461c-0.30115 0.0838-0.60223 0.16382-0.90808 0.23555m1.09271-0.28689l-0.18463 0.05134m0.75183-0.21367l-0.5672 0.16233m1.78027-0.49603c-0.40673 0.10555-0.81121 0.2168-1.21307 0.3337m2.17792-0.54737c-0.32196 0.05889-0.64289 0.13288-0.96485 0.21367m5.04328 0.23329c-1.35791-0.69836-2.71674-0.69988-4.07843-0.44696m4.33972 0.59041c-0.08429-0.05058-0.1723-0.09815-0.26129-0.14345m1.83606 1.40881c-0.52552-0.54963-1.04828-0.95959-1.57477-1.26536m10.52411 1.97203c-2.97711 0.71422-5.95899 0.93392-8.94934-0.70667m8.95312 0.70517c0 0 0 0.00151-0.00378 0.0015m0.7594-0.19252c-0.24903 0.06719-0.50183 0.13138-0.75562 0.19102m0.77552-0.19555c-0.00757 0.00151-0.01136 0.00377-0.0199 0.00453m3.83417-1.12267c-1.26984 0.37296-2.54444 0.77991-3.81427 1.11814m5.17205-1.26838c-0.44976 0.0302-0.90802 0.0755-1.35778 0.15024m1.5548-0.16459c-0.06817 0.00302-0.13262 0.00982-0.19702 0.01435m1.47913-0.03247c-0.42609-0.00906-0.85602-0.00529-1.28211 0.01812m1.53498-0.01132l-0.25287-0.0068m1.52264 0.08683c-0.42138-0.0385-0.84747-0.06568-1.26977-0.08003m1.49896 0.10192l-0.22919-0.02189m1.52259 0.17666c-0.42994-0.05964-0.86347-0.11098-1.2934-0.15477m1.39471 0.16987c-0.03216-0.00453-0.06439-0.01057-0.10131-0.0151m1.34655 0.20914c-0.4176-0.0687-0.83142-0.13515-1.24524-0.19404m1.5625 0.24689l-0.31726-0.05285m1.33802 0.22952c-0.3371-0.05964-0.6789-0.11929-1.02076-0.17667m2.74512 0.4696c-0.57477-0.09437-1.14581-0.19328-1.72436-0.29293m1.79632 0.3035l-0.07196-0.01057m3.16272 0.38656c-1.0293-0.06795-2.06146-0.20988-3.09076-0.37599m13.98413-0.34503c-3.6286 0.26274-7.2572 0.60927-10.89337 0.72102m13.38849-0.88938c-0.83142 0.04681-1.66278 0.10721-2.49512 0.16836m3.87384 0.01585c-0.46209-0.06719-0.92041-0.13136-1.37872-0.18421m1.57568 0.21441l-0.19696-0.0302m1.47913 0.22801c-0.42609-0.06719-0.85223-0.13439-1.28217-0.19781m2.80475 0.43034c-0.51037-0.07324-1.0169-0.15251-1.52258-0.23253m1.60693 0.24386c-0.03216-0.00453-0.05597-0.0083-0.08435-0.01133m8.9693-0.80708c-2.95721 1.41108-5.91919 1.24044-8.88495 0.81841m14.58722-1.63304c-1.90521-0.10268-3.80182 0.08833-5.70227 0.81463m9.47956-0.29369c-1.25751-0.25594-2.516-0.45375-3.77729-0.52094m3.88532 0.54284c-0.03601-0.00604-0.07202-0.01434-0.10803-0.0219m2.04913 0.46054c-0.64343-0.15618-1.29053-0.30242-1.9411-0.43864m3.74499 0.88031c-0.59845-0.14798-1.20068-0.29822-1.80389-0.44167m21.83606 0.87504c-6.68622-0.01057-13.3573-0.48999-20.03217-0.43337m21.08893 0.77161c-0.35321-0.09815-0.70264-0.20611-1.05676-0.33824m1.49512 0.45676c-0.1449-0.037-0.29346-0.07549-0.43836-0.11852m0.94025 0.22875c-0.16858-0.03397-0.33332-0.07021-0.50189-0.11023m18.64111 0.06569c-6.07166-1.39145-12.11115 1.32425-18.13922 0.04454m31.41217 0.80483c-4.44013 0.22725-8.86408 0.03925-13.27295-0.84937m13.27673 0.84937l-0.00378 0m7.0404-0.65911c-2.33008 0.31432-4.67865 0.5343-7.03662 0.65911m8.47113-0.77462c-0.47821 0.02491-0.96008 0.06116-1.43451 0.11551m1.90522-0.13288c-0.15717 0.00529-0.31354 0.00831-0.47071 0.01737m1.9848-0.03398c-0.50482-0.00831-1.00976-0.00278-1.51409 0.01661m2.42694 0.00755c-0.30585-0.01283-0.61078-0.02114-0.91285-0.02416m1.45917 0.04832c-0.18463-0.00981-0.36548-0.01661-0.54632-0.02416m1.4989 0.08758c-0.31818-0.02491-0.63538-0.04606-0.95258-0.06342m1.44208 0.09891c-0.16003-0.01359-0.32947-0.02341-0.4895-0.03549m1.85223 0.16534c-0.45453-0.04756-0.9082-0.09135-1.36273-0.12985m2.10223 0.21366c-0.24524-0.02718-0.49048-0.05663-0.7395-0.08381m1.3938 0.15931l-0.6543-0.0755m12.15943 0.93769c-3.85395 0.2197-7.68714-0.40165-11.50513-0.86219m33.34961 1.59528c-7.25342 1.87237-14.52667-1.49563-21.84448-0.73309m23.5603 1.95467c-0.60205-0.37948-1.17499-0.78741-1.71582-1.22158m2.73187 1.81198c-0.34088-0.17969-0.67895-0.37674-1.01605-0.5904m1.03217 0.60248l-0.01612-0.01208m13.55896-2.19778c-4.50921 3.93727-9.0213 4.6062-13.54284 2.20986m13.85998-2.45145c-0.10889 0.07927-0.21295 0.15552-0.31714 0.24159m12.4046-0.07323c-4.0263-1.34237-8.05737-3.17699-12.08746-0.16836m12.90277 0.43261c-0.27649-0.08456-0.54638-0.17365-0.81531-0.26425m0.92798 0.29898c-0.03979-0.01208-0.0805-0.02341-0.11267-0.03473m1.02075 0.29521c-0.30493-0.08003-0.60693-0.16837-0.90808-0.26048m0.96497 0.27632l-0.05689-0.01584m1.0047 0.23781c-0.3172-0.06493-0.6344-0.14043-0.94781-0.22197m0.97247 0.2265l-0.02466-0.00453m1.0047 0.16383c-0.32953-0.04001-0.65527-0.09437-0.98004-0.1593m1.40613 0.06493c-0.14111 0.03247-0.28497 0.05964-0.42609 0.09437m4.22327-0.83728c-1.27802 0.20587-2.5448 0.45372-3.79718 0.74291m5.78668-1.01546c-0.66284 0.0755-1.32666 0.16761-1.9895 0.27255m12.01923 0.06796c-3.34357-0.6961-6.68616-0.72027-10.02973-0.34051m13.69812 0.97771c-1.22534-0.26349-2.4469-0.50433-3.66839-0.6372m7.08014 1.36124c-1.13727-0.21668-2.27448-0.47867-3.41175-0.72404m3.48462 0.73763l-0.07287-0.01359m0.95635 0.16837c-0.29736-0.04756-0.58996-0.09966-0.88348-0.15478m1.0246 0.17818l-0.14112-0.0234m2.06147 0.24611c-0.63825-0.04454-1.28119-0.1223-1.92035-0.22271m2.12207 0.23329c-0.06915-0.00302-0.13355-0.00529-0.20172-0.01058m1.20166 0.03927c-0.33368 0.00093-0.66724-0.00864-0.99994-0.02869m1.74798 0.00529c-0.25 0.01359-0.49426 0.02189-0.74804 0.0234m0.94403-0.03397c-0.06342 0.00529-0.13257 0.00679-0.19599 0.01057m1.12879-0.11175c-0.30963 0.04605-0.61939 0.07928-0.9328 0.10118m1.11365-0.13364c-0.06061 0.00906-0.12024 0.0234-0.18085 0.03246m1.22143-0.25518c-0.34094 0.09097-0.68835 0.16535-1.04058 0.22272m1.70819-0.41977c-0.22156 0.07248-0.44696 0.13892-0.66761 0.19705m0.94892-0.29068c-0.09656 0.03322-0.18946 0.06267-0.28131 0.09363m1.2055-0.47036c-0.30963 0.14345-0.61548 0.265-0.92419 0.37673m1.99231-0.71497c-0.357 0.10268-0.71112 0.20611-1.06812 0.33824m1.61914-0.48698c-0.18463 0.04454-0.36541 0.0974-0.55102 0.14874m2.09832-0.45451c-0.52282 0.07756-1.03955 0.17966-1.5473 0.30577m1.55487-0.30727l-0.00757 0.0015m2.7082-0.21592c-0.90613 0.01135-1.80951 0.08307-2.70063 0.21442m18.62976 0.61607c-5.32452 0.77311-10.62921-0.90297-15.92913-0.83049m28.60742 2.53374c-4.11151 1.10606-8.32624 0.75575-12.67829-1.70325m12.68201 1.70099l-0.00372 0.00226m1.82751-0.58662c-0.59344 0.22237-1.20239 0.41747-1.82379 0.58436m3.59259-1.32879c-0.57483 0.26986-1.16504 0.51827-1.7688 0.74443m2.76886-0.27558c-0.33331-0.13061-0.66675-0.28463-1.00006-0.46885m1.21301 0.53756c-0.07196-0.02567-0.14001-0.04077-0.21295-0.06871m1.00086 0.31937c-0.26136-0.06493-0.52655-0.15553-0.78791-0.25066m0.9242 0.27783c-0.04828-0.01057-0.08801-0.0151-0.13629-0.02717m1.00848 0.18723c-0.28882-0.03624-0.58246-0.09211-0.87219-0.16006m0.90057 0.16233l-0.02838-0.00227m12.28064-0.97469c-4.00262-0.98904-8.07727 1.4896-12.25226 0.97696m15.9328-3.49258c-1.3219 1.50016-2.58398 2.56998-3.68054 2.51562m3.75732-2.60018c-0.02838 0.02869-0.05218 0.05663-0.07678 0.08456m0.70368-0.82671c-0.20929 0.25594-0.41858 0.50282-0.6269 0.74215m0.6344-0.74895l-0.0075 0.0068m0.61444-0.7565c-0.20453 0.25519-0.40619 0.50584-0.60694 0.7497m0.74805-0.93166c-0.04828 0.06115-0.09662 0.12081-0.14111 0.18196m0.65912-0.84257c-0.17328 0.22272-0.34565 0.44242-0.51801 0.66061m3.32654-4.21132c-0.92041 1.0819-1.87201 2.33819-2.80853 3.55071m7.28936-6.36531c-1.29821-0.44393-2.85308 0.90901-4.48083 2.8146m5.16357-0.24764c-0.11645-1.41183-0.30493-2.43786-0.68274-2.56696m0.7594 3.61413c-0.02038-0.34929-0.0459-0.69837-0.07666-1.04717m0.11267 1.67306l-0.03601-0.62589m0.22919 4.53068c-0.08429-1.26159-0.13257-2.64246-0.19318-3.9048m0.30964 5.28493c-0.04993-0.4594-0.08875-0.91953-0.11646-1.38013m0.70355 3.88896c-0.28973-0.46809-0.46686-1.38314-0.58709-2.50883m13.93206 3.39443c-4.43255-2.88104-8.86889 0.98753-13.34497-0.8856m13.59784 1.06227c-0.08429-0.05889-0.16858-0.12231-0.25287-0.17667m0.99237 0.75348c-0.24902-0.22046-0.49426-0.40165-0.7395-0.57681m1.76789 0.16233c-0.34089 0.13514-0.68653 0.27405-1.02839 0.41448m1.26221-0.50509c-0.0805 0.03095-0.15332 0.0604-0.23382 0.09061m1.33038-0.50207c-0.3678 0.13321-0.7334 0.27038-1.09656 0.41146m2.15704-0.77008c-0.35772 0.11142-0.71136 0.23101-1.06048 0.35862m3.27917-0.89769c-0.75738 0.12919-1.49963 0.30953-2.21869 0.53907m2.32666-0.55568c-0.03601 0.00679-0.07196 0.01132-0.10797 0.01661m1.11737-0.12835c-0.33429 0.02114-0.67132 0.05889-1.0094 0.11174m1.11744-0.11853l-0.10804 0.00679m2.35022 0.14043c-0.73297-0.14325-1.48968-0.19295-2.24218-0.14722m7.51092 3.28118c-1.7641-1.85576-3.51691-2.78591-5.26874-3.13396m9.56769 1.8905c-1.77167 0.14949-3.2829 0.5149-4.29895 1.24346m21.6712 0.39939c-4.96282-0.61758-12.29675-2.07017-17.37225-1.64285m17.44422 1.65116l-0.07197-0.00831m1.64765 0.17591c-0.52667-0.04692-1.052-0.1028-1.57568-0.1676m2.44305 0.22951c-0.27271-0.0151-0.55774-0.03397-0.86737-0.06191m1.2016 0.07701c-0.1051-0.00302-0.21778-0.00981-0.33423-0.0151m1.30682 0.01359c-0.28595 0.01661-0.61938 0.01434-0.97259 0.00151m1.98865-0.43185c-0.32508 0.16301-0.66468 0.30684-1.01606 0.43034m1.39759-0.63797c-0.12403 0.06946-0.24518 0.14194-0.38153 0.20763m0.85205-0.48697c-0.14869 0.09739-0.30957 0.18875-0.47052 0.27934m0.92413-0.59492c-0.14868 0.10872-0.29736 0.21366-0.45361 0.31558m0.69134-0.50585c-0.07672 0.06493-0.15722 0.1276-0.23773 0.19027m2.98572-5.18679c-0.25281 1.58774-0.96399 3.53486-2.74799 4.99652m2.83698-5.73338c-0.0199 0.23405-0.04828 0.47866-0.08899 0.73686m0.09649-0.82142c-0.00378 0.02869-0.00372 0.05663-0.0075 0.08456m0.03973-0.6508c-0.00378 0.17667-0.01611 0.36541-0.03223 0.56624m0.03608-0.6878c0 0.03926-0.00385 0.07927-0.00385 0.12156m0-0.5451c0.00378 0.13061 0.00385 0.26953 0.00385 0.42354m-0.00385-0.55642l0 0.13288m-0.01593-0.41299c0.00476 0.08607 0.00836 0.17365 0.01593 0.28011m-0.02374-0.38052c0.00378 0.02794 0.00403 0.07097 0.00781 0.10041m-0.0437-0.44318c0 0 0.01507 0.12759 0.03589 0.34277m0.10425 0.01963c-0.09278-0.22499-0.14014-0.3624-0.14014-0.3624m0.15247 0.3926c-0.00477-0.00906-0.00855-0.02114-0.01233-0.0302m0.13647 0.31408c-0.04828-0.10796-0.08813-0.19857-0.12414-0.28388m0.15252 0.34126c-0.00757-0.01888-0.01983-0.04001-0.02838-0.05738m2.63232 4.12375c-1.07861-1.26296-1.95336-2.62916-2.60394-4.06637m2.61157 4.07467l-0.00763-0.0083m5.69001 4.17811c-2.4989-1.03434-4.34815-2.61679-5.68238-4.16981m27.94263 2.62359c-8.51282-0.24311-16.69049-0.03322-22.26025 1.54622m25.86799-1.42089c-1.2026-0.04756-2.4052-0.09136-3.60774-0.12533m3.66454 0.12835l-0.0568-0.00302m3.3616 0.15401c-1.0985-0.05436-2.1969-0.10645-3.3048-0.15099m26.5802 1.10077c-5.7667 0.14798-14.3838-0.51189-23.2754-0.94978m42.46-0.20158c-6.3822 2.99957-12.7835 2.84179-19.1846 1.15136m29.8847 0.5972c-3.5605 0.40694-7.1302-0.23028-10.7001-1.74856m11.5239 1.62852c-0.2746 0.04379-0.5492 0.08833-0.8238 0.12004m1.0416-0.15402c-0.0758 0.01359-0.142 0.0219-0.2178 0.03398m1.2216-0.23858c-0.3315 0.07701-0.6629 0.14798-1.0038 0.2046m1.0133-0.20611l-0.0095 0.00151m6.3632-2.63189c-2.121 1.2865-4.2326 2.14492-6.3537 2.63038m8.1056-2.1789c-0.5871-0.09588-1.1742-0.23329-1.7519-0.45148m2.0265 0.50207c-0.0947-0.01283-0.1799-0.03473-0.2746-0.05059m0.9753 0.11325c-0.2367-0.01585-0.464-0.03096-0.7007-0.06266m1.0226 0.08757c-0.1136-0.00453-0.2178-0.01736-0.3219-0.02491m1.0133 0.02567c-0.2273 0.00453-0.4641 0.00679-0.6914-0.00076m1.0133-0.00452c-0.1041 0.00453-0.2177 0.00302-0.3219 0.00528m1.0226-0.05587c-0.2367 0.02114-0.464 0.04001-0.7007 0.05059m1.0036-0.07852c-0.0948 0.01132-0.1988 0.01736-0.3029 0.02793m1.0415-0.12382c-0.2462 0.03624-0.4924 0.06946-0.7386 0.09589m1.0037-0.13515l-0.2651 0.03926m1.0512-0.17666c-0.2652 0.04983-0.5209 0.09512-0.7861 0.1374m0.966-0.17138c-0.0663 0.01208-0.1232 0.0219-0.1799 0.03398m3.4847-0.72933c-1.1079 0.22046-2.1969 0.48017-3.3048 0.69535m3.551-0.74517c-0.0852 0.01661-0.1704 0.03322-0.2462 0.04982m0.9469-0.17515c-0.2273 0.03926-0.464 0.08003-0.7007 0.12533m1.0606-0.18498c-0.1231 0.01963-0.2369 0.04001-0.3599 0.05965m0.9941-0.14421c-0.2083 0.02642-0.4259 0.0521-0.6342 0.08456m1.0321-0.13061c-0.1326 0.01283-0.2653 0.03095-0.3979 0.04605m1.0039-0.08833c-0.1988 0.01057-0.4072 0.0219-0.606 0.04228m1.0132-0.06493c-0.1326 0.00377-0.2651 0.0151-0.4072 0.02265m1.0226-0.01585c-0.2083-0.00529-0.4071-0.01208-0.6154-0.0068m1.0131 0.01661c-0.1325-0.00831-0.2651-0.00604-0.3977-0.00981m1.0605 0.0838c-0.2178-0.02944-0.445-0.05964-0.6628-0.07399m1.0038 0.11476c-0.1136-0.01963-0.2274-0.02718-0.341-0.04077m1.3447 0.26727c-0.3314-0.09815-0.6627-0.17138-1.0037-0.2265m13.3705 1.18382c-4.1191 0.49603-8.2383-1.34086-12.3668-0.95732m13.2285 0.76782c-0.2841 0.07021-0.5776 0.13363-0.8617 0.1895m1.1742-0.26877l-0.3125 0.07927m0.8428-0.2197c-0.18 0.04832-0.3504 0.09437-0.5303 0.14043m0.9659-0.26425c-0.1421 0.04228-0.2935 0.0838-0.4356 0.12382m0.7859-0.22725c-0.1137 0.03624-0.2366 0.06946-0.3503 0.10343m5.2174-1.44732c-1.6192 0.30426-3.2479 0.86296-4.8671 1.34389m9.848-1.10531c-1.6666-0.59493-3.3237-0.55039-4.9809-0.23858m13.9292-0.42279c-2.9827 0.32842-5.9655-0.04908-8.9483 0.66137m8.958-0.66137l-0.0097 0m3.3901-0.77386c-1.1269 0.42657-2.2631 0.64853-3.3804 0.77386m15.7565 0.07173c-4.1381 1.14155-8.257-1.03434-12.3761-0.84559m18.0576-5.24643c-1.9033 2.65303-3.8067 5.95838-5.6815 6.09202m5.8236-6.29057c-0.0568 0.06493-0.0948 0.13136-0.1421 0.19855m0.36-0.5013c-0.0758 0.09815-0.1516 0.20007-0.2179 0.30275m0.5587-0.75197c-0.1137 0.14571-0.2272 0.2952-0.3408 0.44922m0.4923-0.64099c-0.0474 0.06418-0.1042 0.12683-0.1515 0.19177m0.4355-0.53076c-0.0947 0.11023-0.1893 0.22273-0.284 0.33899m0.4072-0.48848c-0.0474 0.04908-0.0853 0.09966-0.1232 0.14949m0.502-0.56171c-0.1231 0.13061-0.2558 0.26802-0.3788 0.41222m0.502-0.53302c-0.0474 0.04077-0.0854 0.07927-0.1232 0.1208m0.4545-0.43035c-0.1137 0.09588-0.2272 0.20008-0.3313 0.30955m0.4165-0.38353c-0.0285 0.02341-0.0568 0.04983-0.0852 0.07398m0.4735-0.37145c-0.1326 0.08909-0.2653 0.18724-0.3883 0.29747m0.4924-0.36618c-0.0379 0.02265-0.0663 0.04455-0.1041 0.06871m0.483-0.27029c-0.1326 0.05511-0.2559 0.12457-0.3789 0.20158m0.4166-0.22271c-0.0189 0.00528-0.0282 0.01434-0.0377 0.02113m0.4354-0.14722c-0.1325 0.02944-0.2651 0.06796-0.3977 0.12609m0.502-0.1427l-0.1043 0.01661m0.5115-0.037c-0.1326-0.01208-0.2747-0.00226-0.4072 0.02039m0.9563 0.10041c-0.18-0.06191-0.3598-0.1072-0.5491-0.1208m0.6343 0.14798c-0.0285-0.01057-0.0568-0.01812-0.0852-0.02718m0.6059 0.28236c-0.1704-0.10268-0.3408-0.1895-0.5207-0.25518m0.6154 0.31634c-0.0284-0.02038-0.0568-0.04153-0.0947-0.06116m0.6251 0.44244c-0.1799-0.14496-0.3504-0.27029-0.5304-0.38128m0.5967 0.43789c-0.0189-0.01888-0.0473-0.0385-0.0663-0.05661m0.5871 0.54434c-0.1704-0.17742-0.3504-0.339-0.5208-0.48773m1.0984 1.1189c-0.1838-0.21536-0.3764-0.42586-0.5776-0.63117m0.6628 0.72706l-0.0852-0.09589m0.6061 0.74669c-0.1704-0.22499-0.3505-0.44242-0.5209-0.6508m0.606 0.75876l-0.0851-0.10796m0.6438 0.85841c-0.1824-0.25196-0.3687-0.50213-0.5587-0.75045m1.108 1.51602c-0.1799-0.25896-0.3694-0.51491-0.5493-0.76557m0.606 0.85465c-0.0285-0.0302-0.0472-0.05964-0.0567-0.08908m0.5681 0.83123l-0.5114-0.74215m0.7198 1.03811c-0.0663-0.0989-0.1326-0.1963-0.2084-0.29596m2.4904 3.34763c-0.7576-0.87579-1.5244-1.95467-2.282-3.05167m2.2916 3.05997c0-0.00302-0.0096-0.00529-0.0096-0.0083m0.5682 0.61154c-0.1799-0.18573-0.3692-0.38958-0.5586-0.60324m0.7384 0.76405c-0.0567-0.05587-0.1135-0.10192-0.1798-0.16081m0.5775 0.52397c-0.1325-0.10872-0.2651-0.23631-0.3977-0.36316m0.9849 0.77689c-0.1893-0.11551-0.3883-0.25518-0.5872-0.41373m2.017-0.05134c-0.4735 0.14269-0.9563 0.29519-1.4298 0.46507m21.5234-1.09397c-6.6757-0.93921-13.3705-1.37861-20.0936 0.6289m23.5121-0.11249c-1.1364-0.17969-2.2727-0.35635-3.4185-0.51641m21.4289 2.33442c-5.9941 0.20913-11.9975-0.87126-18.0104-1.81801m38.9657 1.58697c-6.9788 1.59756-13.9577 3.29252-20.9553 0.23104m24.0991-0.92788c-1.051 0.2197-2.1022 0.45676-3.1438 0.69684m6.1833-1.26233c-1.0131 0.16232-2.0263 0.35409-3.0395 0.56549m7.0735-1.00188c-1.3446 0.06568-2.6894 0.22197-4.034 0.43639m8.0584-0.32314c-1.3352-0.151-2.6798-0.17818-4.0244-0.11325m9.488 1.51073c-1.8181-0.75272-3.6361-1.19363-5.4636-1.39748m6.4484 1.83086c-0.3315-0.15326-0.6534-0.29747-0.9848-0.43338m2.0739 0.98602c-0.3693-0.20083-0.7293-0.379-1.0891-0.55264m1.2026 0.61003c-0.0474-0.01963-0.0757-0.03775-0.1135-0.05739m34.3447 2.65078c-11.4389 3.14529-22.8397 3.55373-34.2312-2.59339m34.2596 2.58583l-0.0284 0.00756m8.4653-2.76327c-2.8218 1.04641-5.6245 1.98184-8.4369 2.75571m34.6288-3.5492c-8.7684 0.5821-17.4897 1.58624-26.1919 0.79349m28.9666-0.96035c-0.928 0.04983-1.8467 0.1057-2.7747 0.16686m16.9879 0c-4.744-0.48093-9.4881-0.41826-14.2132-0.16686m18.9193-0.85616c-1.5624 0.11853-3.1342 0.41978-4.7061 1.02302m6.1927-1.08416c-0.4925 0.00302-0.9942 0.02339-1.4866 0.06114m1.515-0.0619l-0.0284 0.00076m0.8333 0.02113c-0.2651-0.00831-0.5398-0.02341-0.8049-0.02189m-1.7233 5.49935c0.8144-1.85199 1.6761-3.6685 2.5282-5.47746m13.7304 3.23739c-7.064-0.21668-16.2586 2.24006-16.2586 2.24007m19.0519 0.51868c0.6155-0.6123-4.5452-2.0566-2.7933-2.75875m2.3482 4.48465c-0.3029-0.53906-0.1799-1.11285 0.4451-1.7259m4.1477 3.0879c-1.2215-1.3839-2.6705 0.15025-4.5928-1.362m7.7459 2.271c-0.9658-2.30121-1.941-0.644-3.1531-0.909m6.2969 0.80859c-1.2026 0.70441-2.1591-4.86515-3.1438 0.10041m7.6605-1.24346c-1.8938 0.76933-3.3236 1.12342-4.5167 1.14305m7.7269-1.76365c-1.1931 3.52429-2.2633 0.27407-3.2102 0.6206m7.3008-1.57491c-1.5245 0.42355-2.8785-0.9158-4.0906 0.95431m4.8104-1.22459c-0.2462 0.08607-0.4831 0.16005-0.7198 0.27028m11.4957 0.36466c-3.6267 0.20083-7.2343-0.30123-10.7759-0.63494m10.7853 0.64098c0-0.00227 0.0001-0.00378-0.0094-0.00604m5.9276 1.14004c-2.5946-1.86558-4.583 0.31408-5.9182-1.134m10.2836 2.31403c-1.6097 0.71196-3.0586-1.45032-4.3654-1.18003m9.6208 2.25364c-1.8938-0.28538-3.6551 0.93995-5.2554-1.07361m11.4009 1.53869c-2.1874 1.32727-4.2422-4.64469-6.1455-0.46508m13.1433 1.64739c-2.4715 2.00525-4.8104-1.17023-6.9978-1.18231m-1404.1022-36.15379l0 28.77753m1440-28.77753l-1440 0m1440 0l0 33.62155" fill="#f9efe6"/></svg>
